<?xml version="1.0" encoding="UTF-8" standalone="no"?>
<!DOCTYPE svg PUBLIC "-//W3C//DTD SVG 1.1//EN"
 "http://www.w3.org/Graphics/SVG/1.1/DTD/svg11.dtd">
<!-- Generated by graphviz version 2.46.0 (20210119.1425)
 -->
<!-- Title: dependencies Pages: 1 -->
<svg width="504pt" height="211pt"
 viewBox="0.00 0.00 504.00 211.00" xmlns="http://www.w3.org/2000/svg" xmlns:xlink="http://www.w3.org/1999/xlink">
<g id="graph0" class="graph" transform="scale(1 1) rotate(0) translate(4 207)">
<title>dependencies</title>
<polygon fill="white" stroke="transparent" points="-4,4 -4,-207 500,-207 500,4 -4,4"/>
<text text-anchor="start" x="227.01" y="-42.4" font-family="sans-serif" font-weight="bold" font-size="14.00">Legend</text>
<polygon fill="#ffffb3" stroke="transparent" points="14,-10 14,-30 34,-30 34,-10 14,-10"/>
<text text-anchor="start" x="37.63" y="-15.4" font-family="sans-serif" font-size="14.00"> &#160;Declarations</text>
<polygon fill="#8dd3c7" stroke="transparent" points="127,-10 127,-30 147,-30 147,-10 127,-10"/>
<text text-anchor="start" x="150.73" y="-15.4" font-family="sans-serif" font-size="14.00"> &#160;Module</text>
<polygon fill="#80b1d3" stroke="transparent" points="213,-10 213,-30 233,-30 233,-10 213,-10"/>
<text text-anchor="start" x="236.78" y="-15.4" font-family="sans-serif" font-size="14.00"> &#160;Bootstrap</text>
<polygon fill="#fdb462" stroke="transparent" points="310,-10 310,-30 330,-30 330,-10 310,-10"/>
<text text-anchor="start" x="333.67" y="-15.4" font-family="sans-serif" font-size="14.00"> &#160;Providers</text>
<polygon fill="#fb8072" stroke="transparent" points="406,-10 406,-30 426,-30 426,-10 406,-10"/>
<text text-anchor="start" x="429.73" y="-15.4" font-family="sans-serif" font-size="14.00"> &#160;Exports</text>
<g id="clust1" class="cluster">
<title>cluster_ProductServiceModule</title>
<polygon fill="none" stroke="black" stroke-dasharray="1,5" points="110,-70 110,-195 386,-195 386,-70 110,-70"/>
</g>
<g id="clust6" class="cluster">
<title>cluster_ProductServiceModule_providers</title>
<polygon fill="none" stroke="black" points="222,-78 222,-130 378,-130 378,-78 222,-78"/>
</g>
<g id="clust3" class="cluster">
<title>cluster_ProductServiceModule_imports</title>
<polygon fill="none" stroke="black" points="118,-78 118,-130 214,-130 214,-78 118,-78"/>
</g>
<!-- DalModule -->
<g id="node1" class="node">
<title>DalModule</title>
<polygon fill="#8dd3c7" stroke="black" points="205.76,-122 202.76,-126 181.76,-126 178.76,-122 126.24,-122 126.24,-86 205.76,-86 205.76,-122"/>
<text text-anchor="middle" x="166" y="-99.8" font-family="Times,serif" font-size="14.00">DalModule</text>
</g>
<!-- ProductServiceModule -->
<g id="node2" class="node">
<title>ProductServiceModule</title>
<polygon fill="#8dd3c7" stroke="black" points="317.58,-187 314.58,-191 293.58,-191 290.58,-187 172.42,-187 172.42,-151 317.58,-151 317.58,-187"/>
<text text-anchor="middle" x="245" y="-164.8" font-family="Times,serif" font-size="14.00">ProductServiceModule</text>
</g>
<!-- DalModule&#45;&gt;ProductServiceModule -->
<g id="edge1" class="edge">
<title>DalModule&#45;&gt;ProductServiceModule</title>
<path fill="none" stroke="black" d="M189.17,-122.11C189.17,-122.11 189.17,-140.99 189.17,-140.99"/>
<polygon fill="black" stroke="black" points="185.67,-140.99 189.17,-150.99 192.67,-140.99 185.67,-140.99"/>
</g>
<!-- ProductService -->
<g id="node3" class="node">
<title>ProductService</title>
<ellipse fill="#fdb462" stroke="black" cx="300" cy="-104" rx="70.06" ry="18"/>
<text text-anchor="middle" x="300" y="-99.8" font-family="Times,serif" font-size="14.00">ProductService</text>
</g>
<!-- ProductService&#45;&gt;ProductServiceModule -->
<g id="edge2" class="edge">
<title>ProductService&#45;&gt;ProductServiceModule</title>
<path fill="none" stroke="black" d="M273.75,-120.74C273.75,-120.74 273.75,-140.72 273.75,-140.72"/>
<polygon fill="black" stroke="black" points="270.25,-140.72 273.75,-150.72 277.25,-140.72 270.25,-140.72"/>
</g>
</g>
</svg>
