<?xml version="1.0" encoding="UTF-8" standalone="no"?>
<!DOCTYPE svg PUBLIC "-//W3C//DTD SVG 1.1//EN"
 "http://www.w3.org/Graphics/SVG/1.1/DTD/svg11.dtd">
<!-- Generated by graphviz version 2.46.0 (20210119.1425)
 -->
<!-- Title: dependencies Pages: 1 -->
<svg width="768pt" height="284pt"
 viewBox="0.00 0.00 768.00 284.00" xmlns="http://www.w3.org/2000/svg" xmlns:xlink="http://www.w3.org/1999/xlink">
<g id="graph0" class="graph" transform="scale(1 1) rotate(0) translate(4 280)">
<title>dependencies</title>
<polygon fill="white" stroke="transparent" points="-4,4 -4,-280 764,-280 764,4 -4,4"/>
<text text-anchor="start" x="359.01" y="-42.4" font-family="sans-serif" font-weight="bold" font-size="14.00">Legend</text>
<polygon fill="#ffffb3" stroke="transparent" points="146,-10 146,-30 166,-30 166,-10 146,-10"/>
<text text-anchor="start" x="169.63" y="-15.4" font-family="sans-serif" font-size="14.00"> &#160;Declarations</text>
<polygon fill="#8dd3c7" stroke="transparent" points="259,-10 259,-30 279,-30 279,-10 259,-10"/>
<text text-anchor="start" x="282.73" y="-15.4" font-family="sans-serif" font-size="14.00"> &#160;Module</text>
<polygon fill="#80b1d3" stroke="transparent" points="345,-10 345,-30 365,-30 365,-10 345,-10"/>
<text text-anchor="start" x="368.78" y="-15.4" font-family="sans-serif" font-size="14.00"> &#160;Bootstrap</text>
<polygon fill="#fdb462" stroke="transparent" points="442,-10 442,-30 462,-30 462,-10 442,-10"/>
<text text-anchor="start" x="465.67" y="-15.4" font-family="sans-serif" font-size="14.00"> &#160;Providers</text>
<polygon fill="#fb8072" stroke="transparent" points="538,-10 538,-30 558,-30 558,-10 538,-10"/>
<text text-anchor="start" x="561.73" y="-15.4" font-family="sans-serif" font-size="14.00"> &#160;Exports</text>
<g id="clust1" class="cluster">
<title>cluster_AddPropsModule</title>
<polygon fill="none" stroke="black" stroke-dasharray="1,5" points="8,-70 8,-268 752,-268 752,-70 8,-70"/>
</g>
<g id="clust4" class="cluster">
<title>cluster_AddPropsModule_imports</title>
<polygon fill="none" stroke="black" points="178,-78 178,-130 744,-130 744,-78 178,-78"/>
</g>
<g id="clust2" class="cluster">
<title>cluster_AddPropsModule_declarations</title>
<polygon fill="none" stroke="black" points="16,-78 16,-130 170,-130 170,-78 16,-78"/>
</g>
<g id="clust5" class="cluster">
<title>cluster_AddPropsModule_exports</title>
<polygon fill="none" stroke="black" points="326,-208 326,-260 482,-260 482,-208 326,-208"/>
</g>
<!-- AddPropsComponent -->
<g id="node1" class="node">
<title>AddPropsComponent</title>
<polygon fill="#ffffb3" stroke="black" points="161.83,-122 24.17,-122 24.17,-86 161.83,-86 161.83,-122"/>
<text text-anchor="middle" x="93" y="-99.8" font-family="Times,serif" font-size="14.00">AddPropsComponent</text>
</g>
<!-- AddPropsModule -->
<g id="node2" class="node">
<title>AddPropsModule</title>
<polygon fill="#8dd3c7" stroke="black" points="461.55,-187 458.55,-191 437.55,-191 434.55,-187 346.45,-187 346.45,-151 461.55,-151 461.55,-187"/>
<text text-anchor="middle" x="404" y="-164.8" font-family="Times,serif" font-size="14.00">AddPropsModule</text>
</g>
<!-- AddPropsComponent&#45;&gt;AddPropsModule -->
<g id="edge1" class="edge">
<title>AddPropsComponent&#45;&gt;AddPropsModule</title>
<path fill="none" stroke="black" d="M93,-122.28C93,-143.32 93,-175 93,-175 93,-175 336.23,-175 336.23,-175"/>
<polygon fill="black" stroke="black" points="336.23,-178.5 346.23,-175 336.23,-171.5 336.23,-178.5"/>
</g>
<!-- AddPropsComponent  -->
<g id="node7" class="node">
<title>AddPropsComponent </title>
<polygon fill="#fb8072" stroke="black" points="474.33,-252 333.67,-252 333.67,-216 474.33,-216 474.33,-252"/>
<text text-anchor="middle" x="404" y="-229.8" font-family="Times,serif" font-size="14.00">AddPropsComponent </text>
</g>
<!-- AddPropsModule&#45;&gt;AddPropsComponent  -->
<g id="edge6" class="edge">
<title>AddPropsModule&#45;&gt;AddPropsComponent </title>
<path fill="none" stroke="black" stroke-dasharray="5,2" d="M404,-187.11C404,-187.11 404,-205.99 404,-205.99"/>
<polygon fill="black" stroke="black" points="400.5,-205.99 404,-215.99 407.5,-205.99 400.5,-205.99"/>
</g>
<!-- ProductServiceModule -->
<g id="node3" class="node">
<title>ProductServiceModule</title>
<polygon fill="#8dd3c7" stroke="black" points="735.58,-122 732.58,-126 711.58,-126 708.58,-122 590.42,-122 590.42,-86 735.58,-86 735.58,-122"/>
<text text-anchor="middle" x="663" y="-99.8" font-family="Times,serif" font-size="14.00">ProductServiceModule</text>
</g>
<!-- ProductServiceModule&#45;&gt;AddPropsModule -->
<g id="edge2" class="edge">
<title>ProductServiceModule&#45;&gt;AddPropsModule</title>
<path fill="none" stroke="black" d="M663,-122.28C663,-143.32 663,-175 663,-175 663,-175 471.8,-175 471.8,-175"/>
<polygon fill="black" stroke="black" points="471.8,-171.5 461.8,-175 471.8,-178.5 471.8,-171.5"/>
</g>
<!-- FormsModule -->
<g id="node4" class="node">
<title>FormsModule</title>
<polygon fill="#8dd3c7" stroke="black" points="572.83,-122 569.83,-126 548.83,-126 545.83,-122 477.17,-122 477.17,-86 572.83,-86 572.83,-122"/>
<text text-anchor="middle" x="525" y="-99.8" font-family="Times,serif" font-size="14.00">FormsModule</text>
</g>
<!-- FormsModule&#45;&gt;AddPropsModule -->
<g id="edge3" class="edge">
<title>FormsModule&#45;&gt;AddPropsModule</title>
<path fill="none" stroke="black" d="M525,-122.02C525,-139.37 525,-163 525,-163 525,-163 471.66,-163 471.66,-163"/>
<polygon fill="black" stroke="black" points="471.67,-159.5 461.66,-163 471.66,-166.5 471.67,-159.5"/>
</g>
<!-- CommonModule -->
<g id="node5" class="node">
<title>CommonModule</title>
<polygon fill="#8dd3c7" stroke="black" points="459.67,-122 456.67,-126 435.67,-126 432.67,-122 348.33,-122 348.33,-86 459.67,-86 459.67,-122"/>
<text text-anchor="middle" x="404" y="-99.8" font-family="Times,serif" font-size="14.00">CommonModule</text>
</g>
<!-- CommonModule&#45;&gt;AddPropsModule -->
<g id="edge4" class="edge">
<title>CommonModule&#45;&gt;AddPropsModule</title>
<path fill="none" stroke="black" d="M404,-122.11C404,-122.11 404,-140.99 404,-140.99"/>
<polygon fill="black" stroke="black" points="400.5,-140.99 404,-150.99 407.5,-140.99 400.5,-140.99"/>
</g>
<!-- ReactiveFormsModule -->
<g id="node6" class="node">
<title>ReactiveFormsModule</title>
<polygon fill="#8dd3c7" stroke="black" points="330.3,-122 327.3,-126 306.3,-126 303.3,-122 185.7,-122 185.7,-86 330.3,-86 330.3,-122"/>
<text text-anchor="middle" x="258" y="-99.8" font-family="Times,serif" font-size="14.00">ReactiveFormsModule</text>
</g>
<!-- ReactiveFormsModule&#45;&gt;AddPropsModule -->
<g id="edge5" class="edge">
<title>ReactiveFormsModule&#45;&gt;AddPropsModule</title>
<path fill="none" stroke="black" d="M258,-122.02C258,-139.37 258,-163 258,-163 258,-163 336.3,-163 336.3,-163"/>
<polygon fill="black" stroke="black" points="336.3,-166.5 346.3,-163 336.3,-159.5 336.3,-166.5"/>
</g>
</g>
</svg>
