<?xml version="1.0" encoding="UTF-8" standalone="no"?>
<!DOCTYPE svg PUBLIC "-//W3C//DTD SVG 1.1//EN"
 "http://www.w3.org/Graphics/SVG/1.1/DTD/svg11.dtd">
<!-- Generated by graphviz version 2.46.0 (20210119.1425)
 -->
<!-- Title: dependencies Pages: 1 -->
<svg width="504pt" height="284pt"
 viewBox="0.00 0.00 504.00 284.00" xmlns="http://www.w3.org/2000/svg" xmlns:xlink="http://www.w3.org/1999/xlink">
<g id="graph0" class="graph" transform="scale(1 1) rotate(0) translate(4 280)">
<title>dependencies</title>
<polygon fill="white" stroke="transparent" points="-4,4 -4,-280 500,-280 500,4 -4,4"/>
<text text-anchor="start" x="227.01" y="-42.4" font-family="sans-serif" font-weight="bold" font-size="14.00">Legend</text>
<polygon fill="#ffffb3" stroke="transparent" points="14,-10 14,-30 34,-30 34,-10 14,-10"/>
<text text-anchor="start" x="37.63" y="-15.4" font-family="sans-serif" font-size="14.00"> &#160;Declarations</text>
<polygon fill="#8dd3c7" stroke="transparent" points="127,-10 127,-30 147,-30 147,-10 127,-10"/>
<text text-anchor="start" x="150.73" y="-15.4" font-family="sans-serif" font-size="14.00"> &#160;Module</text>
<polygon fill="#80b1d3" stroke="transparent" points="213,-10 213,-30 233,-30 233,-10 213,-10"/>
<text text-anchor="start" x="236.78" y="-15.4" font-family="sans-serif" font-size="14.00"> &#160;Bootstrap</text>
<polygon fill="#fdb462" stroke="transparent" points="310,-10 310,-30 330,-30 330,-10 310,-10"/>
<text text-anchor="start" x="333.67" y="-15.4" font-family="sans-serif" font-size="14.00"> &#160;Providers</text>
<polygon fill="#fb8072" stroke="transparent" points="406,-10 406,-30 426,-30 426,-10 406,-10"/>
<text text-anchor="start" x="429.73" y="-15.4" font-family="sans-serif" font-size="14.00"> &#160;Exports</text>
<g id="clust1" class="cluster">
<title>cluster_CategoriesModule</title>
<polygon fill="none" stroke="black" stroke-dasharray="1,5" points="11.5,-70 11.5,-268 484.5,-268 484.5,-70 11.5,-70"/>
</g>
<g id="clust5" class="cluster">
<title>cluster_CategoriesModule_exports</title>
<polygon fill="none" stroke="black" points="186.5,-208 186.5,-260 346.5,-260 346.5,-208 186.5,-208"/>
</g>
<g id="clust4" class="cluster">
<title>cluster_CategoriesModule_imports</title>
<polygon fill="none" stroke="black" points="185.5,-78 185.5,-130 476.5,-130 476.5,-78 185.5,-78"/>
</g>
<g id="clust2" class="cluster">
<title>cluster_CategoriesModule_declarations</title>
<polygon fill="none" stroke="black" points="19.5,-78 19.5,-130 177.5,-130 177.5,-78 19.5,-78"/>
</g>
<!-- CategoriesComponent -->
<g id="node1" class="node">
<title>CategoriesComponent</title>
<polygon fill="#ffffb3" stroke="black" points="169.2,-122 27.8,-122 27.8,-86 169.2,-86 169.2,-122"/>
<text text-anchor="middle" x="98.5" y="-99.8" font-family="Times,serif" font-size="14.00">CategoriesComponent</text>
</g>
<!-- CategoriesModule -->
<g id="node2" class="node">
<title>CategoriesModule</title>
<polygon fill="#8dd3c7" stroke="black" points="326.42,-187 323.42,-191 302.42,-191 299.42,-187 206.58,-187 206.58,-151 326.42,-151 326.42,-187"/>
<text text-anchor="middle" x="266.5" y="-164.8" font-family="Times,serif" font-size="14.00">CategoriesModule</text>
</g>
<!-- CategoriesComponent&#45;&gt;CategoriesModule -->
<g id="edge1" class="edge">
<title>CategoriesComponent&#45;&gt;CategoriesModule</title>
<path fill="none" stroke="black" d="M98.5,-122.11C98.5,-141.34 98.5,-169 98.5,-169 98.5,-169 196.32,-169 196.32,-169"/>
<polygon fill="black" stroke="black" points="196.32,-172.5 206.32,-169 196.32,-165.5 196.32,-172.5"/>
</g>
<!-- CategoriesComponent  -->
<g id="node5" class="node">
<title>CategoriesComponent </title>
<polygon fill="#fb8072" stroke="black" points="338.7,-252 194.3,-252 194.3,-216 338.7,-216 338.7,-252"/>
<text text-anchor="middle" x="266.5" y="-229.8" font-family="Times,serif" font-size="14.00">CategoriesComponent </text>
</g>
<!-- CategoriesModule&#45;&gt;CategoriesComponent  -->
<g id="edge4" class="edge">
<title>CategoriesModule&#45;&gt;CategoriesComponent </title>
<path fill="none" stroke="black" stroke-dasharray="5,2" d="M266.5,-187.11C266.5,-187.11 266.5,-205.99 266.5,-205.99"/>
<polygon fill="black" stroke="black" points="263,-205.99 266.5,-215.99 270,-205.99 263,-205.99"/>
</g>
<!-- CommonModule -->
<g id="node3" class="node">
<title>CommonModule</title>
<polygon fill="#8dd3c7" stroke="black" points="468.17,-122 465.17,-126 444.17,-126 441.17,-122 356.83,-122 356.83,-86 468.17,-86 468.17,-122"/>
<text text-anchor="middle" x="412.5" y="-99.8" font-family="Times,serif" font-size="14.00">CommonModule</text>
</g>
<!-- CommonModule&#45;&gt;CategoriesModule -->
<g id="edge2" class="edge">
<title>CommonModule&#45;&gt;CategoriesModule</title>
<path fill="none" stroke="black" d="M412.5,-122.11C412.5,-141.34 412.5,-169 412.5,-169 412.5,-169 336.31,-169 336.31,-169"/>
<polygon fill="black" stroke="black" points="336.31,-165.5 326.31,-169 336.31,-172.5 336.31,-165.5"/>
</g>
<!-- ProductServiceModule -->
<g id="node4" class="node">
<title>ProductServiceModule</title>
<polygon fill="#8dd3c7" stroke="black" points="339.08,-122 336.08,-126 315.08,-126 312.08,-122 193.92,-122 193.92,-86 339.08,-86 339.08,-122"/>
<text text-anchor="middle" x="266.5" y="-99.8" font-family="Times,serif" font-size="14.00">ProductServiceModule</text>
</g>
<!-- ProductServiceModule&#45;&gt;CategoriesModule -->
<g id="edge3" class="edge">
<title>ProductServiceModule&#45;&gt;CategoriesModule</title>
<path fill="none" stroke="black" d="M266.5,-122.11C266.5,-122.11 266.5,-140.99 266.5,-140.99"/>
<polygon fill="black" stroke="black" points="263,-140.99 266.5,-150.99 270,-140.99 263,-140.99"/>
</g>
</g>
</svg>
