<?xml version="1.0" encoding="UTF-8" standalone="no"?>
<!DOCTYPE svg PUBLIC "-//W3C//DTD SVG 1.1//EN"
 "http://www.w3.org/Graphics/SVG/1.1/DTD/svg11.dtd">
<!-- Generated by graphviz version 2.46.0 (20210119.1425)
 -->
<!-- Title: dependencies Pages: 1 -->
<svg width="2296pt" height="284pt"
 viewBox="0.00 0.00 2296.00 284.00" xmlns="http://www.w3.org/2000/svg" xmlns:xlink="http://www.w3.org/1999/xlink">
<g id="graph0" class="graph" transform="scale(1 1) rotate(0) translate(4 280)">
<title>dependencies</title>
<polygon fill="white" stroke="transparent" points="-4,4 -4,-280 2292,-280 2292,4 -4,4"/>
<text text-anchor="start" x="1123.01" y="-42.4" font-family="sans-serif" font-weight="bold" font-size="14.00">Legend</text>
<polygon fill="#ffffb3" stroke="transparent" points="910,-10 910,-30 930,-30 930,-10 910,-10"/>
<text text-anchor="start" x="933.63" y="-15.4" font-family="sans-serif" font-size="14.00"> &#160;Declarations</text>
<polygon fill="#8dd3c7" stroke="transparent" points="1023,-10 1023,-30 1043,-30 1043,-10 1023,-10"/>
<text text-anchor="start" x="1046.73" y="-15.4" font-family="sans-serif" font-size="14.00"> &#160;Module</text>
<polygon fill="#80b1d3" stroke="transparent" points="1109,-10 1109,-30 1129,-30 1129,-10 1109,-10"/>
<text text-anchor="start" x="1132.78" y="-15.4" font-family="sans-serif" font-size="14.00"> &#160;Bootstrap</text>
<polygon fill="#fdb462" stroke="transparent" points="1206,-10 1206,-30 1226,-30 1226,-10 1206,-10"/>
<text text-anchor="start" x="1229.67" y="-15.4" font-family="sans-serif" font-size="14.00"> &#160;Providers</text>
<polygon fill="#fb8072" stroke="transparent" points="1302,-10 1302,-30 1322,-30 1322,-10 1302,-10"/>
<text text-anchor="start" x="1325.73" y="-15.4" font-family="sans-serif" font-size="14.00"> &#160;Exports</text>
<g id="clust1" class="cluster">
<title>cluster_PaymentsModule</title>
<polygon fill="none" stroke="black" stroke-dasharray="1,5" points="8,-70 8,-268 2280,-268 2280,-70 8,-70"/>
</g>
<g id="clust14" class="cluster">
<title>cluster_PaymentsModule_providers</title>
<polygon fill="none" stroke="black" points="2100,-78 2100,-130 2272,-130 2272,-78 2100,-78"/>
</g>
<g id="clust12" class="cluster">
<title>cluster_PaymentsModule_exports</title>
<polygon fill="none" stroke="black" points="298,-208 298,-260 1734,-260 1734,-208 298,-208"/>
</g>
<g id="clust2" class="cluster">
<title>cluster_PaymentsModule_declarations</title>
<polygon fill="none" stroke="black" points="683,-78 683,-130 2092,-130 2092,-78 683,-78"/>
</g>
<g id="clust11" class="cluster">
<title>cluster_PaymentsModule_imports</title>
<polygon fill="none" stroke="black" points="16,-78 16,-130 675,-130 675,-78 16,-78"/>
</g>
<!-- PaymentsComponent -->
<g id="node1" class="node">
<title>PaymentsComponent</title>
<polygon fill="#ffffb3" stroke="black" points="2083.77,-122 1948.23,-122 1948.23,-86 2083.77,-86 2083.77,-122"/>
<text text-anchor="middle" x="2016" y="-99.8" font-family="Times,serif" font-size="14.00">PaymentsComponent</text>
</g>
<!-- PaymentsModule -->
<g id="node9" class="node">
<title>PaymentsModule</title>
<polygon fill="#8dd3c7" stroke="black" points="1080.99,-187 1077.99,-191 1056.99,-191 1053.99,-187 967.01,-187 967.01,-151 1080.99,-151 1080.99,-187"/>
<text text-anchor="middle" x="1024" y="-164.8" font-family="Times,serif" font-size="14.00">PaymentsModule</text>
</g>
<!-- PaymentsComponent&#45;&gt;PaymentsModule -->
<g id="edge1" class="edge">
<title>PaymentsComponent&#45;&gt;PaymentsModule</title>
<path fill="none" stroke="black" d="M2016,-122.11C2016,-141.34 2016,-169 2016,-169 2016,-169 1091.26,-169 1091.26,-169"/>
<polygon fill="black" stroke="black" points="1091.26,-165.5 1081.26,-169 1091.26,-172.5 1091.26,-165.5"/>
</g>
<!-- DeliveriesComponent -->
<g id="node2" class="node">
<title>DeliveriesComponent</title>
<polygon fill="#ffffb3" stroke="black" points="1930.36,-122 1791.64,-122 1791.64,-86 1930.36,-86 1930.36,-122"/>
<text text-anchor="middle" x="1861" y="-99.8" font-family="Times,serif" font-size="14.00">DeliveriesComponent</text>
</g>
<!-- DeliveriesComponent&#45;&gt;PaymentsModule -->
<g id="edge2" class="edge">
<title>DeliveriesComponent&#45;&gt;PaymentsModule</title>
<path fill="none" stroke="black" d="M1861,-122.27C1861,-140.56 1861,-166 1861,-166 1861,-166 1091.2,-166 1091.2,-166"/>
<polygon fill="black" stroke="black" points="1091.2,-162.5 1081.2,-166 1091.2,-169.5 1091.2,-162.5"/>
</g>
<!-- PickupDeliveryComponent -->
<g id="node3" class="node">
<title>PickupDeliveryComponent</title>
<polygon fill="#ffffb3" stroke="black" points="1773.7,-122 1604.3,-122 1604.3,-86 1773.7,-86 1773.7,-122"/>
<text text-anchor="middle" x="1689" y="-99.8" font-family="Times,serif" font-size="14.00">PickupDeliveryComponent</text>
</g>
<!-- PickupDeliveryComponent&#45;&gt;PaymentsModule -->
<g id="edge3" class="edge">
<title>PickupDeliveryComponent&#45;&gt;PaymentsModule</title>
<path fill="none" stroke="black" d="M1665.02,-122.03C1665.02,-139.06 1665.02,-162 1665.02,-162 1665.02,-162 1091.17,-162 1091.17,-162"/>
<polygon fill="black" stroke="black" points="1091.17,-158.5 1081.17,-162 1091.17,-165.5 1091.17,-158.5"/>
</g>
<!-- AddressDeliveryComponent -->
<g id="node4" class="node">
<title>AddressDeliveryComponent</title>
<polygon fill="#ffffb3" stroke="black" points="1586.18,-122 1409.82,-122 1409.82,-86 1586.18,-86 1586.18,-122"/>
<text text-anchor="middle" x="1498" y="-99.8" font-family="Times,serif" font-size="14.00">AddressDeliveryComponent</text>
</g>
<!-- AddressDeliveryComponent&#45;&gt;PaymentsModule -->
<g id="edge4" class="edge">
<title>AddressDeliveryComponent&#45;&gt;PaymentsModule</title>
<path fill="none" stroke="black" d="M1417.86,-122.01C1417.86,-138.05 1417.86,-159 1417.86,-159 1417.86,-159 1091.27,-159 1091.27,-159"/>
<polygon fill="black" stroke="black" points="1091.27,-155.5 1081.27,-159 1091.27,-162.5 1091.27,-155.5"/>
</g>
<!-- PaymentsContainerComponent -->
<g id="node5" class="node">
<title>PaymentsContainerComponent</title>
<polygon fill="#ffffb3" stroke="black" points="1391.48,-122 1200.52,-122 1200.52,-86 1391.48,-86 1391.48,-122"/>
<text text-anchor="middle" x="1296" y="-99.8" font-family="Times,serif" font-size="14.00">PaymentsContainerComponent</text>
</g>
<!-- PaymentsContainerComponent&#45;&gt;PaymentsModule -->
<g id="edge5" class="edge">
<title>PaymentsContainerComponent&#45;&gt;PaymentsModule</title>
<path fill="none" stroke="black" d="M1208.68,-122.12C1208.68,-136.78 1208.68,-155 1208.68,-155 1208.68,-155 1091.17,-155 1091.17,-155"/>
<polygon fill="black" stroke="black" points="1091.17,-151.5 1081.17,-155 1091.17,-158.5 1091.17,-151.5"/>
</g>
<!-- TwoCheckoutComponent -->
<g id="node6" class="node">
<title>TwoCheckoutComponent</title>
<polygon fill="#ffffb3" stroke="black" points="1182.15,-122 1021.85,-122 1021.85,-86 1182.15,-86 1182.15,-122"/>
<text text-anchor="middle" x="1102" y="-99.8" font-family="Times,serif" font-size="14.00">TwoCheckoutComponent</text>
</g>
<!-- TwoCheckoutComponent&#45;&gt;PaymentsModule -->
<g id="edge6" class="edge">
<title>TwoCheckoutComponent&#45;&gt;PaymentsModule</title>
<path fill="none" stroke="black" d="M1051.33,-122.11C1051.33,-122.11 1051.33,-140.99 1051.33,-140.99"/>
<polygon fill="black" stroke="black" points="1047.83,-140.99 1051.33,-150.99 1054.83,-140.99 1047.83,-140.99"/>
</g>
<!-- StripeComponent -->
<g id="node7" class="node">
<title>StripeComponent</title>
<polygon fill="#ffffb3" stroke="black" points="1003.27,-122 888.73,-122 888.73,-86 1003.27,-86 1003.27,-122"/>
<text text-anchor="middle" x="946" y="-99.8" font-family="Times,serif" font-size="14.00">StripeComponent</text>
</g>
<!-- StripeComponent&#45;&gt;PaymentsModule -->
<g id="edge7" class="edge">
<title>StripeComponent&#45;&gt;PaymentsModule</title>
<path fill="none" stroke="black" d="M985.2,-122.11C985.2,-122.11 985.2,-140.99 985.2,-140.99"/>
<polygon fill="black" stroke="black" points="981.7,-140.99 985.2,-150.99 988.7,-140.99 981.7,-140.99"/>
</g>
<!-- PaymentsSpinnerComponent -->
<g id="node8" class="node">
<title>PaymentsSpinnerComponent</title>
<polygon fill="#ffffb3" stroke="black" points="870.82,-122 691.18,-122 691.18,-86 870.82,-86 870.82,-122"/>
<text text-anchor="middle" x="781" y="-99.8" font-family="Times,serif" font-size="14.00">PaymentsSpinnerComponent</text>
</g>
<!-- PaymentsSpinnerComponent&#45;&gt;PaymentsModule -->
<g id="edge8" class="edge">
<title>PaymentsSpinnerComponent&#45;&gt;PaymentsModule</title>
<path fill="none" stroke="black" d="M847.71,-122.12C847.71,-136.78 847.71,-155 847.71,-155 847.71,-155 956.76,-155 956.76,-155"/>
<polygon fill="black" stroke="black" points="956.76,-158.5 966.76,-155 956.76,-151.5 956.76,-158.5"/>
</g>
<!-- PaymentsComponent  -->
<g id="node15" class="node">
<title>PaymentsComponent </title>
<polygon fill="#fb8072" stroke="black" points="1725.77,-252 1586.23,-252 1586.23,-216 1725.77,-216 1725.77,-252"/>
<text text-anchor="middle" x="1656" y="-229.8" font-family="Times,serif" font-size="14.00">PaymentsComponent </text>
</g>
<!-- PaymentsModule&#45;&gt;PaymentsComponent  -->
<g id="edge14" class="edge">
<title>PaymentsModule&#45;&gt;PaymentsComponent </title>
<path fill="none" stroke="black" stroke-dasharray="5,2" d="M1081.14,-177C1225.85,-177 1595.38,-177 1595.38,-177 1595.38,-177 1595.38,-205.96 1595.38,-205.96"/>
<polygon fill="black" stroke="black" points="1591.88,-205.96 1595.38,-215.96 1598.88,-205.96 1591.88,-205.96"/>
</g>
<!-- DeliveriesComponent  -->
<g id="node16" class="node">
<title>DeliveriesComponent </title>
<polygon fill="#fb8072" stroke="black" points="1568.36,-252 1425.64,-252 1425.64,-216 1568.36,-216 1568.36,-252"/>
<text text-anchor="middle" x="1497" y="-229.8" font-family="Times,serif" font-size="14.00">DeliveriesComponent </text>
</g>
<!-- PaymentsModule&#45;&gt;DeliveriesComponent  -->
<g id="edge15" class="edge">
<title>PaymentsModule&#45;&gt;DeliveriesComponent </title>
<path fill="none" stroke="black" stroke-dasharray="5,2" d="M1081.05,-180C1206.86,-180 1497,-180 1497,-180 1497,-180 1497,-205.72 1497,-205.72"/>
<polygon fill="black" stroke="black" points="1493.5,-205.72 1497,-215.72 1500.5,-205.72 1493.5,-205.72"/>
</g>
<!-- PickupDeliveryComponent  -->
<g id="node17" class="node">
<title>PickupDeliveryComponent </title>
<polygon fill="#fb8072" stroke="black" points="1407.2,-252 1234.8,-252 1234.8,-216 1407.2,-216 1407.2,-252"/>
<text text-anchor="middle" x="1321" y="-229.8" font-family="Times,serif" font-size="14.00">PickupDeliveryComponent </text>
</g>
<!-- PaymentsModule&#45;&gt;PickupDeliveryComponent  -->
<g id="edge16" class="edge">
<title>PaymentsModule&#45;&gt;PickupDeliveryComponent </title>
<path fill="none" stroke="black" stroke-dasharray="5,2" d="M1081.11,-184C1165.35,-184 1313.07,-184 1313.07,-184 1313.07,-184 1313.07,-205.95 1313.07,-205.95"/>
<polygon fill="black" stroke="black" points="1309.57,-205.95 1313.07,-215.95 1316.57,-205.95 1309.57,-205.95"/>
</g>
<!-- AddressDeliveryComponent  -->
<g id="node18" class="node">
<title>AddressDeliveryComponent </title>
<polygon fill="#fb8072" stroke="black" points="1216.68,-252 1037.32,-252 1037.32,-216 1216.68,-216 1216.68,-252"/>
<text text-anchor="middle" x="1127" y="-229.8" font-family="Times,serif" font-size="14.00">AddressDeliveryComponent </text>
</g>
<!-- PaymentsModule&#45;&gt;AddressDeliveryComponent  -->
<g id="edge17" class="edge">
<title>PaymentsModule&#45;&gt;AddressDeliveryComponent </title>
<path fill="none" stroke="black" stroke-dasharray="5,2" d="M1059.08,-187.11C1059.08,-187.11 1059.08,-205.99 1059.08,-205.99"/>
<polygon fill="black" stroke="black" points="1055.58,-205.99 1059.08,-215.99 1062.58,-205.99 1055.58,-205.99"/>
</g>
<!-- PaymentsContainerComponent  -->
<g id="node19" class="node">
<title>PaymentsContainerComponent </title>
<polygon fill="#fb8072" stroke="black" points="1019.48,-252 824.52,-252 824.52,-216 1019.48,-216 1019.48,-252"/>
<text text-anchor="middle" x="922" y="-229.8" font-family="Times,serif" font-size="14.00">PaymentsContainerComponent </text>
</g>
<!-- PaymentsModule&#45;&gt;PaymentsContainerComponent  -->
<g id="edge18" class="edge">
<title>PaymentsModule&#45;&gt;PaymentsContainerComponent </title>
<path fill="none" stroke="black" stroke-dasharray="5,2" d="M993.12,-187.11C993.12,-187.11 993.12,-205.99 993.12,-205.99"/>
<polygon fill="black" stroke="black" points="989.62,-205.99 993.12,-215.99 996.62,-205.99 989.62,-205.99"/>
</g>
<!-- TwoCheckoutComponent  -->
<g id="node20" class="node">
<title>TwoCheckoutComponent </title>
<polygon fill="#fb8072" stroke="black" points="807.15,-252 642.85,-252 642.85,-216 807.15,-216 807.15,-252"/>
<text text-anchor="middle" x="725" y="-229.8" font-family="Times,serif" font-size="14.00">TwoCheckoutComponent </text>
</g>
<!-- PaymentsModule&#45;&gt;TwoCheckoutComponent  -->
<g id="edge19" class="edge">
<title>PaymentsModule&#45;&gt;TwoCheckoutComponent </title>
<path fill="none" stroke="black" stroke-dasharray="5,2" d="M966.73,-184C886.2,-184 749.21,-184 749.21,-184 749.21,-184 749.21,-205.95 749.21,-205.95"/>
<polygon fill="black" stroke="black" points="745.71,-205.95 749.21,-215.95 752.71,-205.95 745.71,-205.95"/>
</g>
<!-- StripeComponent  -->
<g id="node21" class="node">
<title>StripeComponent </title>
<polygon fill="#fb8072" stroke="black" points="625.27,-252 506.73,-252 506.73,-216 625.27,-216 625.27,-252"/>
<text text-anchor="middle" x="566" y="-229.8" font-family="Times,serif" font-size="14.00">StripeComponent </text>
</g>
<!-- PaymentsModule&#45;&gt;StripeComponent  -->
<g id="edge20" class="edge">
<title>PaymentsModule&#45;&gt;StripeComponent </title>
<path fill="none" stroke="black" stroke-dasharray="5,2" d="M966.74,-180C849.46,-180 592.82,-180 592.82,-180 592.82,-180 592.82,-205.72 592.82,-205.72"/>
<polygon fill="black" stroke="black" points="589.32,-205.72 592.82,-215.72 596.32,-205.72 589.32,-205.72"/>
</g>
<!-- PaymentsSpinnerComponent  -->
<g id="node22" class="node">
<title>PaymentsSpinnerComponent </title>
<polygon fill="#fb8072" stroke="black" points="488.32,-252 305.68,-252 305.68,-216 488.32,-216 488.32,-252"/>
<text text-anchor="middle" x="397" y="-229.8" font-family="Times,serif" font-size="14.00">PaymentsSpinnerComponent </text>
</g>
<!-- PaymentsModule&#45;&gt;PaymentsSpinnerComponent  -->
<g id="edge21" class="edge">
<title>PaymentsModule&#45;&gt;PaymentsSpinnerComponent </title>
<path fill="none" stroke="black" stroke-dasharray="5,2" d="M966.86,-177C825.93,-177 473.1,-177 473.1,-177 473.1,-177 473.1,-205.96 473.1,-205.96"/>
<polygon fill="black" stroke="black" points="469.6,-205.96 473.1,-215.96 476.6,-205.96 469.6,-205.96"/>
</g>
<!-- BrowserModule -->
<g id="node10" class="node">
<title>BrowserModule</title>
<polygon fill="#8dd3c7" stroke="black" points="667.47,-122 664.47,-126 643.47,-126 640.47,-122 560.53,-122 560.53,-86 667.47,-86 667.47,-122"/>
<text text-anchor="middle" x="614" y="-99.8" font-family="Times,serif" font-size="14.00">BrowserModule</text>
</g>
<!-- BrowserModule&#45;&gt;PaymentsModule -->
<g id="edge9" class="edge">
<title>BrowserModule&#45;&gt;PaymentsModule</title>
<path fill="none" stroke="black" d="M655.21,-122.01C655.21,-138.05 655.21,-159 655.21,-159 655.21,-159 956.78,-159 956.78,-159"/>
<polygon fill="black" stroke="black" points="956.78,-162.5 966.78,-159 956.78,-155.5 956.78,-162.5"/>
</g>
<!-- HttpModule -->
<g id="node11" class="node">
<title>HttpModule</title>
<polygon fill="#8dd3c7" stroke="black" points="542.44,-122 539.44,-126 518.44,-126 515.44,-122 457.56,-122 457.56,-86 542.44,-86 542.44,-122"/>
<text text-anchor="middle" x="500" y="-99.8" font-family="Times,serif" font-size="14.00">HttpModule</text>
</g>
<!-- HttpModule&#45;&gt;PaymentsModule -->
<g id="edge10" class="edge">
<title>HttpModule&#45;&gt;PaymentsModule</title>
<path fill="none" stroke="black" d="M524.54,-122.03C524.54,-139.06 524.54,-162 524.54,-162 524.54,-162 956.71,-162 956.71,-162"/>
<polygon fill="black" stroke="black" points="956.71,-165.5 966.71,-162 956.71,-158.5 956.71,-165.5"/>
</g>
<!-- FormsModule -->
<g id="node12" class="node">
<title>FormsModule</title>
<polygon fill="#8dd3c7" stroke="black" points="439.83,-122 436.83,-126 415.83,-126 412.83,-122 344.17,-122 344.17,-86 439.83,-86 439.83,-122"/>
<text text-anchor="middle" x="392" y="-99.8" font-family="Times,serif" font-size="14.00">FormsModule</text>
</g>
<!-- FormsModule&#45;&gt;PaymentsModule -->
<g id="edge11" class="edge">
<title>FormsModule&#45;&gt;PaymentsModule</title>
<path fill="none" stroke="black" d="M392,-122.27C392,-140.56 392,-166 392,-166 392,-166 956.8,-166 956.8,-166"/>
<polygon fill="black" stroke="black" points="956.8,-169.5 966.8,-166 956.8,-162.5 956.8,-169.5"/>
</g>
<!-- ReactiveFormsModule -->
<g id="node13" class="node">
<title>ReactiveFormsModule</title>
<polygon fill="#8dd3c7" stroke="black" points="326.3,-122 323.3,-126 302.3,-126 299.3,-122 181.7,-122 181.7,-86 326.3,-86 326.3,-122"/>
<text text-anchor="middle" x="254" y="-99.8" font-family="Times,serif" font-size="14.00">ReactiveFormsModule</text>
</g>
<!-- ReactiveFormsModule&#45;&gt;PaymentsModule -->
<g id="edge12" class="edge">
<title>ReactiveFormsModule&#45;&gt;PaymentsModule</title>
<path fill="none" stroke="black" d="M315.87,-122.11C315.87,-141.34 315.87,-169 315.87,-169 315.87,-169 956.95,-169 956.95,-169"/>
<polygon fill="black" stroke="black" points="956.95,-172.5 966.95,-169 956.95,-165.5 956.95,-172.5"/>
</g>
<!-- BasketServiceModule -->
<g id="node14" class="node">
<title>BasketServiceModule</title>
<polygon fill="#8dd3c7" stroke="black" points="163.63,-122 160.63,-126 139.63,-126 136.63,-122 24.37,-122 24.37,-86 163.63,-86 163.63,-122"/>
<text text-anchor="middle" x="94" y="-99.8" font-family="Times,serif" font-size="14.00">BasketServiceModule</text>
</g>
<!-- BasketServiceModule&#45;&gt;PaymentsModule -->
<g id="edge13" class="edge">
<title>BasketServiceModule&#45;&gt;PaymentsModule</title>
<path fill="none" stroke="black" d="M94,-122.13C94,-142.57 94,-173 94,-173 94,-173 956.88,-173 956.88,-173"/>
<polygon fill="black" stroke="black" points="956.88,-176.5 966.88,-173 956.88,-169.5 956.88,-176.5"/>
</g>
<!-- PaymentsService -->
<g id="node23" class="node">
<title>PaymentsService</title>
<ellipse fill="#fdb462" stroke="black" cx="2186" cy="-104" rx="77.58" ry="18"/>
<text text-anchor="middle" x="2186" y="-99.8" font-family="Times,serif" font-size="14.00">PaymentsService</text>
</g>
<!-- PaymentsService&#45;&gt;PaymentsModule -->
<g id="edge22" class="edge">
<title>PaymentsService&#45;&gt;PaymentsModule</title>
<path fill="none" stroke="black" d="M2186,-122.13C2186,-142.57 2186,-173 2186,-173 2186,-173 1091.23,-173 1091.23,-173"/>
<polygon fill="black" stroke="black" points="1091.23,-169.5 1081.23,-173 1091.23,-176.5 1091.23,-169.5"/>
</g>
</g>
</svg>
