<?xml version="1.0" encoding="UTF-8" standalone="no"?>
<!DOCTYPE svg PUBLIC "-//W3C//DTD SVG 1.1//EN"
 "http://www.w3.org/Graphics/SVG/1.1/DTD/svg11.dtd">
<!-- Generated by graphviz version 2.46.0 (20210119.1425)
 -->
<!-- Title: dependencies Pages: 1 -->
<svg width="504pt" height="284pt"
 viewBox="0.00 0.00 504.00 284.00" xmlns="http://www.w3.org/2000/svg" xmlns:xlink="http://www.w3.org/1999/xlink">
<g id="graph0" class="graph" transform="scale(1 1) rotate(0) translate(4 280)">
<title>dependencies</title>
<polygon fill="white" stroke="transparent" points="-4,4 -4,-280 500,-280 500,4 -4,4"/>
<text text-anchor="start" x="227.01" y="-42.4" font-family="sans-serif" font-weight="bold" font-size="14.00">Legend</text>
<polygon fill="#ffffb3" stroke="transparent" points="14,-10 14,-30 34,-30 34,-10 14,-10"/>
<text text-anchor="start" x="37.63" y="-15.4" font-family="sans-serif" font-size="14.00"> &#160;Declarations</text>
<polygon fill="#8dd3c7" stroke="transparent" points="127,-10 127,-30 147,-30 147,-10 127,-10"/>
<text text-anchor="start" x="150.73" y="-15.4" font-family="sans-serif" font-size="14.00"> &#160;Module</text>
<polygon fill="#80b1d3" stroke="transparent" points="213,-10 213,-30 233,-30 233,-10 213,-10"/>
<text text-anchor="start" x="236.78" y="-15.4" font-family="sans-serif" font-size="14.00"> &#160;Bootstrap</text>
<polygon fill="#fdb462" stroke="transparent" points="310,-10 310,-30 330,-30 330,-10 310,-10"/>
<text text-anchor="start" x="333.67" y="-15.4" font-family="sans-serif" font-size="14.00"> &#160;Providers</text>
<polygon fill="#fb8072" stroke="transparent" points="406,-10 406,-30 426,-30 426,-10 406,-10"/>
<text text-anchor="start" x="429.73" y="-15.4" font-family="sans-serif" font-size="14.00"> &#160;Exports</text>
<g id="clust1" class="cluster">
<title>cluster_SeoTextModule</title>
<polygon fill="none" stroke="black" stroke-dasharray="1,5" points="51,-70 51,-268 445,-268 445,-70 51,-70"/>
</g>
<g id="clust2" class="cluster">
<title>cluster_SeoTextModule_declarations</title>
<polygon fill="none" stroke="black" points="293,-78 293,-130 437,-130 437,-78 293,-78"/>
</g>
<g id="clust5" class="cluster">
<title>cluster_SeoTextModule_exports</title>
<polygon fill="none" stroke="black" points="147,-208 147,-260 295,-260 295,-208 147,-208"/>
</g>
<g id="clust4" class="cluster">
<title>cluster_SeoTextModule_imports</title>
<polygon fill="none" stroke="black" points="59,-78 59,-130 285,-130 285,-78 59,-78"/>
</g>
<!-- SeoTextComponent -->
<g id="node1" class="node">
<title>SeoTextComponent</title>
<polygon fill="#ffffb3" stroke="black" points="428.99,-122 301.01,-122 301.01,-86 428.99,-86 428.99,-122"/>
<text text-anchor="middle" x="365" y="-99.8" font-family="Times,serif" font-size="14.00">SeoTextComponent</text>
</g>
<!-- SeoTextModule -->
<g id="node2" class="node">
<title>SeoTextModule</title>
<polygon fill="#8dd3c7" stroke="black" points="274.2,-187 271.2,-191 250.2,-191 247.2,-187 167.8,-187 167.8,-151 274.2,-151 274.2,-187"/>
<text text-anchor="middle" x="221" y="-164.8" font-family="Times,serif" font-size="14.00">SeoTextModule</text>
</g>
<!-- SeoTextComponent&#45;&gt;SeoTextModule -->
<g id="edge1" class="edge">
<title>SeoTextComponent&#45;&gt;SeoTextModule</title>
<path fill="none" stroke="black" d="M365,-122.11C365,-141.34 365,-169 365,-169 365,-169 284.21,-169 284.21,-169"/>
<polygon fill="black" stroke="black" points="284.21,-165.5 274.21,-169 284.21,-172.5 284.21,-165.5"/>
</g>
<!-- SeoTextComponent  -->
<g id="node5" class="node">
<title>SeoTextComponent </title>
<polygon fill="#fb8072" stroke="black" points="286.99,-252 155.01,-252 155.01,-216 286.99,-216 286.99,-252"/>
<text text-anchor="middle" x="221" y="-229.8" font-family="Times,serif" font-size="14.00">SeoTextComponent </text>
</g>
<!-- SeoTextModule&#45;&gt;SeoTextComponent  -->
<g id="edge4" class="edge">
<title>SeoTextModule&#45;&gt;SeoTextComponent </title>
<path fill="none" stroke="black" stroke-dasharray="5,2" d="M221,-187.11C221,-187.11 221,-205.99 221,-205.99"/>
<polygon fill="black" stroke="black" points="217.5,-205.99 221,-215.99 224.5,-205.99 217.5,-205.99"/>
</g>
<!-- CommonModule -->
<g id="node3" class="node">
<title>CommonModule</title>
<polygon fill="#8dd3c7" stroke="black" points="276.67,-122 273.67,-126 252.67,-126 249.67,-122 165.33,-122 165.33,-86 276.67,-86 276.67,-122"/>
<text text-anchor="middle" x="221" y="-99.8" font-family="Times,serif" font-size="14.00">CommonModule</text>
</g>
<!-- CommonModule&#45;&gt;SeoTextModule -->
<g id="edge2" class="edge">
<title>CommonModule&#45;&gt;SeoTextModule</title>
<path fill="none" stroke="black" d="M221,-122.11C221,-122.11 221,-140.99 221,-140.99"/>
<polygon fill="black" stroke="black" points="217.5,-140.99 221,-150.99 224.5,-140.99 217.5,-140.99"/>
</g>
<!-- DalModule -->
<g id="node4" class="node">
<title>DalModule</title>
<polygon fill="#8dd3c7" stroke="black" points="146.76,-122 143.76,-126 122.76,-126 119.76,-122 67.24,-122 67.24,-86 146.76,-86 146.76,-122"/>
<text text-anchor="middle" x="107" y="-99.8" font-family="Times,serif" font-size="14.00">DalModule</text>
</g>
<!-- DalModule&#45;&gt;SeoTextModule -->
<g id="edge3" class="edge">
<title>DalModule&#45;&gt;SeoTextModule</title>
<path fill="none" stroke="black" d="M107,-122.11C107,-141.34 107,-169 107,-169 107,-169 157.67,-169 157.67,-169"/>
<polygon fill="black" stroke="black" points="157.67,-172.5 167.67,-169 157.67,-165.5 157.67,-172.5"/>
</g>
</g>
</svg>
