<?xml version="1.0" encoding="UTF-8" standalone="no"?>
<!DOCTYPE svg PUBLIC "-//W3C//DTD SVG 1.1//EN"
 "http://www.w3.org/Graphics/SVG/1.1/DTD/svg11.dtd">
<!-- Generated by graphviz version 2.46.0 (20210119.1425)
 -->
<!-- Title: dependencies Pages: 1 -->
<svg width="504pt" height="211pt"
 viewBox="0.00 0.00 504.00 211.00" xmlns="http://www.w3.org/2000/svg" xmlns:xlink="http://www.w3.org/1999/xlink">
<g id="graph0" class="graph" transform="scale(1 1) rotate(0) translate(4 207)">
<title>dependencies</title>
<polygon fill="white" stroke="transparent" points="-4,4 -4,-207 500,-207 500,4 -4,4"/>
<text text-anchor="start" x="227.01" y="-42.4" font-family="sans-serif" font-weight="bold" font-size="14.00">Legend</text>
<polygon fill="#ffffb3" stroke="transparent" points="14,-10 14,-30 34,-30 34,-10 14,-10"/>
<text text-anchor="start" x="37.63" y="-15.4" font-family="sans-serif" font-size="14.00"> &#160;Declarations</text>
<polygon fill="#8dd3c7" stroke="transparent" points="127,-10 127,-30 147,-30 147,-10 127,-10"/>
<text text-anchor="start" x="150.73" y="-15.4" font-family="sans-serif" font-size="14.00"> &#160;Module</text>
<polygon fill="#80b1d3" stroke="transparent" points="213,-10 213,-30 233,-30 233,-10 213,-10"/>
<text text-anchor="start" x="236.78" y="-15.4" font-family="sans-serif" font-size="14.00"> &#160;Bootstrap</text>
<polygon fill="#fdb462" stroke="transparent" points="310,-10 310,-30 330,-30 330,-10 310,-10"/>
<text text-anchor="start" x="333.67" y="-15.4" font-family="sans-serif" font-size="14.00"> &#160;Providers</text>
<polygon fill="#fb8072" stroke="transparent" points="406,-10 406,-30 426,-30 426,-10 406,-10"/>
<text text-anchor="start" x="429.73" y="-15.4" font-family="sans-serif" font-size="14.00"> &#160;Exports</text>
<g id="clust1" class="cluster">
<title>cluster_BasketServiceModule</title>
<polygon fill="none" stroke="black" stroke-dasharray="1,5" points="44.5,-70 44.5,-195 451.5,-195 451.5,-70 44.5,-70"/>
</g>
<g id="clust6" class="cluster">
<title>cluster_BasketServiceModule_providers</title>
<polygon fill="none" stroke="black" points="156.5,-78 156.5,-130 443.5,-130 443.5,-78 156.5,-78"/>
</g>
<g id="clust3" class="cluster">
<title>cluster_BasketServiceModule_imports</title>
<polygon fill="none" stroke="black" points="52.5,-78 52.5,-130 148.5,-130 148.5,-78 52.5,-78"/>
</g>
<!-- DalModule -->
<g id="node1" class="node">
<title>DalModule</title>
<polygon fill="#8dd3c7" stroke="black" points="140.26,-122 137.26,-126 116.26,-126 113.26,-122 60.74,-122 60.74,-86 140.26,-86 140.26,-122"/>
<text text-anchor="middle" x="100.5" y="-99.8" font-family="Times,serif" font-size="14.00">DalModule</text>
</g>
<!-- BasketServiceModule -->
<g id="node2" class="node">
<title>BasketServiceModule</title>
<polygon fill="#8dd3c7" stroke="black" points="294.13,-187 291.13,-191 270.13,-191 267.13,-187 154.87,-187 154.87,-151 294.13,-151 294.13,-187"/>
<text text-anchor="middle" x="224.5" y="-164.8" font-family="Times,serif" font-size="14.00">BasketServiceModule</text>
</g>
<!-- DalModule&#45;&gt;BasketServiceModule -->
<g id="edge1" class="edge">
<title>DalModule&#45;&gt;BasketServiceModule</title>
<path fill="none" stroke="black" d="M140.44,-104C150.94,-104 159.4,-104 159.4,-104 159.4,-104 159.4,-140.89 159.4,-140.89"/>
<polygon fill="black" stroke="black" points="155.9,-140.89 159.4,-150.89 162.9,-140.89 155.9,-140.89"/>
</g>
<!-- BasketService -->
<g id="node3" class="node">
<title>BasketService</title>
<ellipse fill="#fdb462" stroke="black" cx="369.5" cy="-104" rx="66.05" ry="18"/>
<text text-anchor="middle" x="369.5" y="-99.8" font-family="Times,serif" font-size="14.00">BasketService</text>
</g>
<!-- BasketService&#45;&gt;BasketServiceModule -->
<g id="edge2" class="edge">
<title>BasketService&#45;&gt;BasketServiceModule</title>
<path fill="none" stroke="black" d="M303.16,-104C295.08,-104 289.6,-104 289.6,-104 289.6,-104 289.6,-140.89 289.6,-140.89"/>
<polygon fill="black" stroke="black" points="286.1,-140.89 289.6,-150.89 293.1,-140.89 286.1,-140.89"/>
</g>
<!-- SessionFlow -->
<g id="node4" class="node">
<title>SessionFlow</title>
<ellipse fill="#fdb462" stroke="black" cx="224.5" cy="-104" rx="60.29" ry="18"/>
<text text-anchor="middle" x="224.5" y="-99.8" font-family="Times,serif" font-size="14.00">SessionFlow</text>
</g>
<!-- SessionFlow&#45;&gt;BasketServiceModule -->
<g id="edge3" class="edge">
<title>SessionFlow&#45;&gt;BasketServiceModule</title>
<path fill="none" stroke="black" d="M224.5,-122.11C224.5,-122.11 224.5,-140.99 224.5,-140.99"/>
<polygon fill="black" stroke="black" points="221,-140.99 224.5,-150.99 228,-140.99 221,-140.99"/>
</g>
</g>
</svg>
