<?xml version="1.0" encoding="UTF-8" standalone="no"?>
<!DOCTYPE svg PUBLIC "-//W3C//DTD SVG 1.1//EN"
 "http://www.w3.org/Graphics/SVG/1.1/DTD/svg11.dtd">
<!-- Generated by graphviz version 2.46.0 (20210119.1425)
 -->
<!-- Title: dependencies Pages: 1 -->
<svg width="504pt" height="284pt"
 viewBox="0.00 0.00 504.00 284.00" xmlns="http://www.w3.org/2000/svg" xmlns:xlink="http://www.w3.org/1999/xlink">
<g id="graph0" class="graph" transform="scale(1 1) rotate(0) translate(4 280)">
<title>dependencies</title>
<polygon fill="white" stroke="transparent" points="-4,4 -4,-280 500,-280 500,4 -4,4"/>
<text text-anchor="start" x="227.01" y="-42.4" font-family="sans-serif" font-weight="bold" font-size="14.00">Legend</text>
<polygon fill="#ffffb3" stroke="transparent" points="14,-10 14,-30 34,-30 34,-10 14,-10"/>
<text text-anchor="start" x="37.63" y="-15.4" font-family="sans-serif" font-size="14.00"> &#160;Declarations</text>
<polygon fill="#8dd3c7" stroke="transparent" points="127,-10 127,-30 147,-30 147,-10 127,-10"/>
<text text-anchor="start" x="150.73" y="-15.4" font-family="sans-serif" font-size="14.00"> &#160;Module</text>
<polygon fill="#80b1d3" stroke="transparent" points="213,-10 213,-30 233,-30 233,-10 213,-10"/>
<text text-anchor="start" x="236.78" y="-15.4" font-family="sans-serif" font-size="14.00"> &#160;Bootstrap</text>
<polygon fill="#fdb462" stroke="transparent" points="310,-10 310,-30 330,-30 330,-10 310,-10"/>
<text text-anchor="start" x="333.67" y="-15.4" font-family="sans-serif" font-size="14.00"> &#160;Providers</text>
<polygon fill="#fb8072" stroke="transparent" points="406,-10 406,-30 426,-30 426,-10 406,-10"/>
<text text-anchor="start" x="429.73" y="-15.4" font-family="sans-serif" font-size="14.00"> &#160;Exports</text>
<g id="clust1" class="cluster">
<title>cluster_TagsSearchModule</title>
<polygon fill="none" stroke="black" stroke-dasharray="1,5" points="9.5,-70 9.5,-268 486.5,-268 486.5,-70 9.5,-70"/>
</g>
<g id="clust2" class="cluster">
<title>cluster_TagsSearchModule_declarations</title>
<polygon fill="none" stroke="black" points="316.5,-78 316.5,-130 478.5,-130 478.5,-78 316.5,-78"/>
</g>
<g id="clust4" class="cluster">
<title>cluster_TagsSearchModule_imports</title>
<polygon fill="none" stroke="black" points="17.5,-78 17.5,-130 308.5,-130 308.5,-78 17.5,-78"/>
</g>
<g id="clust5" class="cluster">
<title>cluster_TagsSearchModule_exports</title>
<polygon fill="none" stroke="black" points="144.5,-208 144.5,-260 310.5,-260 310.5,-208 144.5,-208"/>
</g>
<!-- TagsSearchComponent -->
<g id="node1" class="node">
<title>TagsSearchComponent</title>
<polygon fill="#ffffb3" stroke="black" points="470.63,-122 324.37,-122 324.37,-86 470.63,-86 470.63,-122"/>
<text text-anchor="middle" x="397.5" y="-99.8" font-family="Times,serif" font-size="14.00">TagsSearchComponent</text>
</g>
<!-- TagsSearchModule -->
<g id="node2" class="node">
<title>TagsSearchModule</title>
<polygon fill="#8dd3c7" stroke="black" points="289.85,-187 286.85,-191 265.85,-191 262.85,-187 165.15,-187 165.15,-151 289.85,-151 289.85,-187"/>
<text text-anchor="middle" x="227.5" y="-164.8" font-family="Times,serif" font-size="14.00">TagsSearchModule</text>
</g>
<!-- TagsSearchComponent&#45;&gt;TagsSearchModule -->
<g id="edge1" class="edge">
<title>TagsSearchComponent&#45;&gt;TagsSearchModule</title>
<path fill="none" stroke="black" d="M397.5,-122.11C397.5,-141.34 397.5,-169 397.5,-169 397.5,-169 300.32,-169 300.32,-169"/>
<polygon fill="black" stroke="black" points="300.32,-165.5 290.32,-169 300.32,-172.5 300.32,-165.5"/>
</g>
<!-- TagsSearchComponent  -->
<g id="node5" class="node">
<title>TagsSearchComponent </title>
<polygon fill="#fb8072" stroke="black" points="302.63,-252 152.37,-252 152.37,-216 302.63,-216 302.63,-252"/>
<text text-anchor="middle" x="227.5" y="-229.8" font-family="Times,serif" font-size="14.00">TagsSearchComponent </text>
</g>
<!-- TagsSearchModule&#45;&gt;TagsSearchComponent  -->
<g id="edge4" class="edge">
<title>TagsSearchModule&#45;&gt;TagsSearchComponent </title>
<path fill="none" stroke="black" stroke-dasharray="5,2" d="M227.5,-187.11C227.5,-187.11 227.5,-205.99 227.5,-205.99"/>
<polygon fill="black" stroke="black" points="224,-205.99 227.5,-215.99 231,-205.99 224,-205.99"/>
</g>
<!-- ProductServiceModule -->
<g id="node3" class="node">
<title>ProductServiceModule</title>
<polygon fill="#8dd3c7" stroke="black" points="300.08,-122 297.08,-126 276.08,-126 273.08,-122 154.92,-122 154.92,-86 300.08,-86 300.08,-122"/>
<text text-anchor="middle" x="227.5" y="-99.8" font-family="Times,serif" font-size="14.00">ProductServiceModule</text>
</g>
<!-- ProductServiceModule&#45;&gt;TagsSearchModule -->
<g id="edge2" class="edge">
<title>ProductServiceModule&#45;&gt;TagsSearchModule</title>
<path fill="none" stroke="black" d="M227.5,-122.11C227.5,-122.11 227.5,-140.99 227.5,-140.99"/>
<polygon fill="black" stroke="black" points="224,-140.99 227.5,-150.99 231,-140.99 224,-140.99"/>
</g>
<!-- CommonModule -->
<g id="node4" class="node">
<title>CommonModule</title>
<polygon fill="#8dd3c7" stroke="black" points="137.17,-122 134.17,-126 113.17,-126 110.17,-122 25.83,-122 25.83,-86 137.17,-86 137.17,-122"/>
<text text-anchor="middle" x="81.5" y="-99.8" font-family="Times,serif" font-size="14.00">CommonModule</text>
</g>
<!-- CommonModule&#45;&gt;TagsSearchModule -->
<g id="edge3" class="edge">
<title>CommonModule&#45;&gt;TagsSearchModule</title>
<path fill="none" stroke="black" d="M81.5,-122.11C81.5,-141.34 81.5,-169 81.5,-169 81.5,-169 154.74,-169 154.74,-169"/>
<polygon fill="black" stroke="black" points="154.74,-172.5 164.74,-169 154.74,-165.5 154.74,-172.5"/>
</g>
</g>
</svg>
