<?xml version="1.0" encoding="UTF-8" standalone="no"?>
<!DOCTYPE svg PUBLIC "-//W3C//DTD SVG 1.1//EN"
 "http://www.w3.org/Graphics/SVG/1.1/DTD/svg11.dtd">
<!-- Generated by graphviz version 2.46.0 (20210119.1425)
 -->
<!-- Title: dependencies Pages: 1 -->
<svg width="504pt" height="284pt"
 viewBox="0.00 0.00 504.00 284.00" xmlns="http://www.w3.org/2000/svg" xmlns:xlink="http://www.w3.org/1999/xlink">
<g id="graph0" class="graph" transform="scale(1 1) rotate(0) translate(4 280)">
<title>dependencies</title>
<polygon fill="white" stroke="transparent" points="-4,4 -4,-280 500,-280 500,4 -4,4"/>
<text text-anchor="start" x="227.01" y="-42.4" font-family="sans-serif" font-weight="bold" font-size="14.00">Legend</text>
<polygon fill="#ffffb3" stroke="transparent" points="14,-10 14,-30 34,-30 34,-10 14,-10"/>
<text text-anchor="start" x="37.63" y="-15.4" font-family="sans-serif" font-size="14.00"> &#160;Declarations</text>
<polygon fill="#8dd3c7" stroke="transparent" points="127,-10 127,-30 147,-30 147,-10 127,-10"/>
<text text-anchor="start" x="150.73" y="-15.4" font-family="sans-serif" font-size="14.00"> &#160;Module</text>
<polygon fill="#80b1d3" stroke="transparent" points="213,-10 213,-30 233,-30 233,-10 213,-10"/>
<text text-anchor="start" x="236.78" y="-15.4" font-family="sans-serif" font-size="14.00"> &#160;Bootstrap</text>
<polygon fill="#fdb462" stroke="transparent" points="310,-10 310,-30 330,-30 330,-10 310,-10"/>
<text text-anchor="start" x="333.67" y="-15.4" font-family="sans-serif" font-size="14.00"> &#160;Providers</text>
<polygon fill="#fb8072" stroke="transparent" points="406,-10 406,-30 426,-30 426,-10 406,-10"/>
<text text-anchor="start" x="429.73" y="-15.4" font-family="sans-serif" font-size="14.00"> &#160;Exports</text>
<g id="clust1" class="cluster">
<title>cluster_SearchBarModule</title>
<polygon fill="none" stroke="black" stroke-dasharray="1,5" points="12.5,-70 12.5,-268 483.5,-268 483.5,-70 12.5,-70"/>
</g>
<g id="clust2" class="cluster">
<title>cluster_SearchBarModule_declarations</title>
<polygon fill="none" stroke="black" points="319.5,-78 319.5,-130 475.5,-130 475.5,-78 319.5,-78"/>
</g>
<g id="clust4" class="cluster">
<title>cluster_SearchBarModule_imports</title>
<polygon fill="none" stroke="black" points="20.5,-78 20.5,-130 311.5,-130 311.5,-78 20.5,-78"/>
</g>
<g id="clust5" class="cluster">
<title>cluster_SearchBarModule_exports</title>
<polygon fill="none" stroke="black" points="150.5,-208 150.5,-260 310.5,-260 310.5,-208 150.5,-208"/>
</g>
<!-- SearchBarComponent -->
<g id="node1" class="node">
<title>SearchBarComponent</title>
<polygon fill="#ffffb3" stroke="black" points="467.13,-122 327.87,-122 327.87,-86 467.13,-86 467.13,-122"/>
<text text-anchor="middle" x="397.5" y="-99.8" font-family="Times,serif" font-size="14.00">SearchBarComponent</text>
</g>
<!-- SearchBarModule -->
<g id="node2" class="node">
<title>SearchBarModule</title>
<polygon fill="#8dd3c7" stroke="black" points="289.35,-187 286.35,-191 265.35,-191 262.35,-187 171.65,-187 171.65,-151 289.35,-151 289.35,-187"/>
<text text-anchor="middle" x="230.5" y="-164.8" font-family="Times,serif" font-size="14.00">SearchBarModule</text>
</g>
<!-- SearchBarComponent&#45;&gt;SearchBarModule -->
<g id="edge1" class="edge">
<title>SearchBarComponent&#45;&gt;SearchBarModule</title>
<path fill="none" stroke="black" d="M397.5,-122.11C397.5,-141.34 397.5,-169 397.5,-169 397.5,-169 299.38,-169 299.38,-169"/>
<polygon fill="black" stroke="black" points="299.38,-165.5 289.38,-169 299.38,-172.5 299.38,-165.5"/>
</g>
<!-- SearchBarComponent  -->
<g id="node5" class="node">
<title>SearchBarComponent </title>
<polygon fill="#fb8072" stroke="black" points="302.13,-252 158.87,-252 158.87,-216 302.13,-216 302.13,-252"/>
<text text-anchor="middle" x="230.5" y="-229.8" font-family="Times,serif" font-size="14.00">SearchBarComponent </text>
</g>
<!-- SearchBarModule&#45;&gt;SearchBarComponent  -->
<g id="edge4" class="edge">
<title>SearchBarModule&#45;&gt;SearchBarComponent </title>
<path fill="none" stroke="black" stroke-dasharray="5,2" d="M230.5,-187.11C230.5,-187.11 230.5,-205.99 230.5,-205.99"/>
<polygon fill="black" stroke="black" points="227,-205.99 230.5,-215.99 234,-205.99 227,-205.99"/>
</g>
<!-- ProductServiceModule -->
<g id="node3" class="node">
<title>ProductServiceModule</title>
<polygon fill="#8dd3c7" stroke="black" points="303.08,-122 300.08,-126 279.08,-126 276.08,-122 157.92,-122 157.92,-86 303.08,-86 303.08,-122"/>
<text text-anchor="middle" x="230.5" y="-99.8" font-family="Times,serif" font-size="14.00">ProductServiceModule</text>
</g>
<!-- ProductServiceModule&#45;&gt;SearchBarModule -->
<g id="edge2" class="edge">
<title>ProductServiceModule&#45;&gt;SearchBarModule</title>
<path fill="none" stroke="black" d="M230.5,-122.11C230.5,-122.11 230.5,-140.99 230.5,-140.99"/>
<polygon fill="black" stroke="black" points="227,-140.99 230.5,-150.99 234,-140.99 227,-140.99"/>
</g>
<!-- CommonModule -->
<g id="node4" class="node">
<title>CommonModule</title>
<polygon fill="#8dd3c7" stroke="black" points="140.17,-122 137.17,-126 116.17,-126 113.17,-122 28.83,-122 28.83,-86 140.17,-86 140.17,-122"/>
<text text-anchor="middle" x="84.5" y="-99.8" font-family="Times,serif" font-size="14.00">CommonModule</text>
</g>
<!-- CommonModule&#45;&gt;SearchBarModule -->
<g id="edge3" class="edge">
<title>CommonModule&#45;&gt;SearchBarModule</title>
<path fill="none" stroke="black" d="M84.5,-122.11C84.5,-141.34 84.5,-169 84.5,-169 84.5,-169 161.54,-169 161.54,-169"/>
<polygon fill="black" stroke="black" points="161.54,-172.5 171.54,-169 161.54,-165.5 161.54,-172.5"/>
</g>
</g>
</svg>
