<?xml version="1.0" encoding="UTF-8" standalone="no"?>
<!DOCTYPE svg PUBLIC "-//W3C//DTD SVG 1.1//EN"
 "http://www.w3.org/Graphics/SVG/1.1/DTD/svg11.dtd">
<!-- Generated by graphviz version 2.46.0 (20210119.1425)
 -->
<!-- Title: dependencies Pages: 1 -->
<svg width="879pt" height="284pt"
 viewBox="0.00 0.00 879.00 284.00" xmlns="http://www.w3.org/2000/svg" xmlns:xlink="http://www.w3.org/1999/xlink">
<g id="graph0" class="graph" transform="scale(1 1) rotate(0) translate(4 280)">
<title>dependencies</title>
<polygon fill="white" stroke="transparent" points="-4,4 -4,-280 875,-280 875,4 -4,4"/>
<text text-anchor="start" x="414.51" y="-42.4" font-family="sans-serif" font-weight="bold" font-size="14.00">Legend</text>
<polygon fill="#ffffb3" stroke="transparent" points="201.5,-10 201.5,-30 221.5,-30 221.5,-10 201.5,-10"/>
<text text-anchor="start" x="225.13" y="-15.4" font-family="sans-serif" font-size="14.00"> &#160;Declarations</text>
<polygon fill="#8dd3c7" stroke="transparent" points="314.5,-10 314.5,-30 334.5,-30 334.5,-10 314.5,-10"/>
<text text-anchor="start" x="338.23" y="-15.4" font-family="sans-serif" font-size="14.00"> &#160;Module</text>
<polygon fill="#80b1d3" stroke="transparent" points="400.5,-10 400.5,-30 420.5,-30 420.5,-10 400.5,-10"/>
<text text-anchor="start" x="424.28" y="-15.4" font-family="sans-serif" font-size="14.00"> &#160;Bootstrap</text>
<polygon fill="#fdb462" stroke="transparent" points="497.5,-10 497.5,-30 517.5,-30 517.5,-10 497.5,-10"/>
<text text-anchor="start" x="521.17" y="-15.4" font-family="sans-serif" font-size="14.00"> &#160;Providers</text>
<polygon fill="#fb8072" stroke="transparent" points="593.5,-10 593.5,-30 613.5,-30 613.5,-10 593.5,-10"/>
<text text-anchor="start" x="617.23" y="-15.4" font-family="sans-serif" font-size="14.00"> &#160;Exports</text>
<g id="clust1" class="cluster">
<title>cluster_ProductsGeneralModule</title>
<polygon fill="none" stroke="black" stroke-dasharray="1,5" points="8,-70 8,-268 863,-268 863,-70 8,-70"/>
</g>
<g id="clust5" class="cluster">
<title>cluster_ProductsGeneralModule_exports</title>
<polygon fill="none" stroke="black" points="333,-208 333,-260 527,-260 527,-208 333,-208"/>
</g>
<g id="clust2" class="cluster">
<title>cluster_ProductsGeneralModule_declarations</title>
<polygon fill="none" stroke="black" points="665,-78 665,-130 855,-130 855,-78 665,-78"/>
</g>
<g id="clust4" class="cluster">
<title>cluster_ProductsGeneralModule_imports</title>
<polygon fill="none" stroke="black" points="16,-78 16,-130 657,-130 657,-78 16,-78"/>
</g>
<!-- ProductsGeneralComponent -->
<g id="node1" class="node">
<title>ProductsGeneralComponent</title>
<polygon fill="#ffffb3" stroke="black" points="847.13,-122 672.87,-122 672.87,-86 847.13,-86 847.13,-122"/>
<text text-anchor="middle" x="760" y="-99.8" font-family="Times,serif" font-size="14.00">ProductsGeneralComponent</text>
</g>
<!-- ProductsGeneralModule -->
<g id="node2" class="node">
<title>ProductsGeneralModule</title>
<polygon fill="#8dd3c7" stroke="black" points="506.34,-187 503.34,-191 482.34,-191 479.34,-187 353.66,-187 353.66,-151 506.34,-151 506.34,-187"/>
<text text-anchor="middle" x="430" y="-164.8" font-family="Times,serif" font-size="14.00">ProductsGeneralModule</text>
</g>
<!-- ProductsGeneralComponent&#45;&gt;ProductsGeneralModule -->
<g id="edge1" class="edge">
<title>ProductsGeneralComponent&#45;&gt;ProductsGeneralModule</title>
<path fill="none" stroke="black" d="M760,-122.28C760,-143.32 760,-175 760,-175 760,-175 516.54,-175 516.54,-175"/>
<polygon fill="black" stroke="black" points="516.54,-171.5 506.54,-175 516.54,-178.5 516.54,-171.5"/>
</g>
<!-- ProductsGeneralComponent  -->
<g id="node7" class="node">
<title>ProductsGeneralComponent </title>
<polygon fill="#fb8072" stroke="black" points="519.13,-252 340.87,-252 340.87,-216 519.13,-216 519.13,-252"/>
<text text-anchor="middle" x="430" y="-229.8" font-family="Times,serif" font-size="14.00">ProductsGeneralComponent </text>
</g>
<!-- ProductsGeneralModule&#45;&gt;ProductsGeneralComponent  -->
<g id="edge6" class="edge">
<title>ProductsGeneralModule&#45;&gt;ProductsGeneralComponent </title>
<path fill="none" stroke="black" stroke-dasharray="5,2" d="M430,-187.11C430,-187.11 430,-205.99 430,-205.99"/>
<polygon fill="black" stroke="black" points="426.5,-205.99 430,-215.99 433.5,-205.99 426.5,-205.99"/>
</g>
<!-- ProductServiceModule -->
<g id="node3" class="node">
<title>ProductServiceModule</title>
<polygon fill="#8dd3c7" stroke="black" points="648.58,-122 645.58,-126 624.58,-126 621.58,-122 503.42,-122 503.42,-86 648.58,-86 648.58,-122"/>
<text text-anchor="middle" x="576" y="-99.8" font-family="Times,serif" font-size="14.00">ProductServiceModule</text>
</g>
<!-- ProductServiceModule&#45;&gt;ProductsGeneralModule -->
<g id="edge2" class="edge">
<title>ProductServiceModule&#45;&gt;ProductsGeneralModule</title>
<path fill="none" stroke="black" d="M512.74,-122.02C512.74,-139.37 512.74,-163 512.74,-163 512.74,-163 512.12,-163 512.12,-163"/>
<polygon fill="black" stroke="black" points="516.52,-159.5 506.52,-163 516.52,-166.5 516.52,-159.5"/>
</g>
<!-- CommonModule -->
<g id="node4" class="node">
<title>CommonModule</title>
<polygon fill="#8dd3c7" stroke="black" points="485.67,-122 482.67,-126 461.67,-126 458.67,-122 374.33,-122 374.33,-86 485.67,-86 485.67,-122"/>
<text text-anchor="middle" x="430" y="-99.8" font-family="Times,serif" font-size="14.00">CommonModule</text>
</g>
<!-- CommonModule&#45;&gt;ProductsGeneralModule -->
<g id="edge3" class="edge">
<title>CommonModule&#45;&gt;ProductsGeneralModule</title>
<path fill="none" stroke="black" d="M430,-122.11C430,-122.11 430,-140.99 430,-140.99"/>
<polygon fill="black" stroke="black" points="426.5,-140.99 430,-150.99 433.5,-140.99 426.5,-140.99"/>
</g>
<!-- CategoryFilterModule -->
<g id="node5" class="node">
<title>CategoryFilterModule</title>
<polygon fill="#8dd3c7" stroke="black" points="356.7,-122 353.7,-126 332.7,-126 329.7,-122 215.3,-122 215.3,-86 356.7,-86 356.7,-122"/>
<text text-anchor="middle" x="286" y="-99.8" font-family="Times,serif" font-size="14.00">CategoryFilterModule</text>
</g>
<!-- CategoryFilterModule&#45;&gt;ProductsGeneralModule -->
<g id="edge4" class="edge">
<title>CategoryFilterModule&#45;&gt;ProductsGeneralModule</title>
<path fill="none" stroke="black" d="M347.26,-122.28C347.26,-143.32 347.26,-175 347.26,-175 347.26,-175 347.88,-175 347.88,-175"/>
<polygon fill="black" stroke="black" points="343.48,-178.5 353.48,-175 343.48,-171.5 343.48,-178.5"/>
</g>
<!-- GeneralCategoryAllModule -->
<g id="node6" class="node">
<title>GeneralCategoryAllModule</title>
<polygon fill="#8dd3c7" stroke="black" points="197.56,-122 194.56,-126 173.56,-126 170.56,-122 24.44,-122 24.44,-86 197.56,-86 197.56,-122"/>
<text text-anchor="middle" x="111" y="-99.8" font-family="Times,serif" font-size="14.00">GeneralCategoryAllModule</text>
</g>
<!-- GeneralCategoryAllModule&#45;&gt;ProductsGeneralModule -->
<g id="edge5" class="edge">
<title>GeneralCategoryAllModule&#45;&gt;ProductsGeneralModule</title>
<path fill="none" stroke="black" d="M111,-122.02C111,-139.37 111,-163 111,-163 111,-163 343.59,-163 343.59,-163"/>
<polygon fill="black" stroke="black" points="343.59,-166.5 353.59,-163 343.59,-159.5 343.59,-166.5"/>
</g>
</g>
</svg>
