<?xml version="1.0" encoding="UTF-8" standalone="no"?>
<!DOCTYPE svg PUBLIC "-//W3C//DTD SVG 1.1//EN"
 "http://www.w3.org/Graphics/SVG/1.1/DTD/svg11.dtd">
<!-- Generated by graphviz version 2.46.0 (20210119.1425)
 -->
<!-- Title: dependencies Pages: 1 -->
<svg width="1224pt" height="211pt"
 viewBox="0.00 0.00 1224.00 211.00" xmlns="http://www.w3.org/2000/svg" xmlns:xlink="http://www.w3.org/1999/xlink">
<g id="graph0" class="graph" transform="scale(1 1) rotate(0) translate(4 207)">
<title>dependencies</title>
<polygon fill="white" stroke="transparent" points="-4,4 -4,-207 1220,-207 1220,4 -4,4"/>
<text text-anchor="start" x="587.01" y="-42.4" font-family="sans-serif" font-weight="bold" font-size="14.00">Legend</text>
<polygon fill="#ffffb3" stroke="transparent" points="374,-10 374,-30 394,-30 394,-10 374,-10"/>
<text text-anchor="start" x="397.63" y="-15.4" font-family="sans-serif" font-size="14.00"> &#160;Declarations</text>
<polygon fill="#8dd3c7" stroke="transparent" points="487,-10 487,-30 507,-30 507,-10 487,-10"/>
<text text-anchor="start" x="510.73" y="-15.4" font-family="sans-serif" font-size="14.00"> &#160;Module</text>
<polygon fill="#80b1d3" stroke="transparent" points="573,-10 573,-30 593,-30 593,-10 573,-10"/>
<text text-anchor="start" x="596.78" y="-15.4" font-family="sans-serif" font-size="14.00"> &#160;Bootstrap</text>
<polygon fill="#fdb462" stroke="transparent" points="670,-10 670,-30 690,-30 690,-10 670,-10"/>
<text text-anchor="start" x="693.67" y="-15.4" font-family="sans-serif" font-size="14.00"> &#160;Providers</text>
<polygon fill="#fb8072" stroke="transparent" points="766,-10 766,-30 786,-30 786,-10 766,-10"/>
<text text-anchor="start" x="789.73" y="-15.4" font-family="sans-serif" font-size="14.00"> &#160;Exports</text>
<g id="clust1" class="cluster">
<title>cluster_FirebaseConnectorModule</title>
<polygon fill="none" stroke="black" stroke-dasharray="1,5" points="8,-70 8,-195 1208,-195 1208,-70 8,-70"/>
</g>
<g id="clust6" class="cluster">
<title>cluster_FirebaseConnectorModule_providers</title>
<polygon fill="none" stroke="black" points="16,-78 16,-130 1200,-130 1200,-78 16,-78"/>
</g>
<!-- FirebaseConnector -->
<g id="node1" class="node">
<title>FirebaseConnector</title>
<ellipse fill="#fdb462" stroke="black" cx="1108" cy="-104" rx="83.95" ry="18"/>
<text text-anchor="middle" x="1108" y="-99.8" font-family="Times,serif" font-size="14.00">FirebaseConnector</text>
</g>
<!-- FirebaseConnectorModule -->
<g id="node9" class="node">
<title>FirebaseConnectorModule</title>
<polygon fill="#8dd3c7" stroke="black" points="675.79,-187 672.79,-191 651.79,-191 648.79,-187 510.21,-187 510.21,-151 675.79,-151 675.79,-187"/>
<text text-anchor="middle" x="593" y="-164.8" font-family="Times,serif" font-size="14.00">FirebaseConnectorModule</text>
</g>
<!-- FirebaseConnector&#45;&gt;FirebaseConnectorModule -->
<g id="edge1" class="edge">
<title>FirebaseConnector&#45;&gt;FirebaseConnectorModule</title>
<path fill="none" stroke="black" d="M1108,-122.29C1108,-144.21 1108,-178 1108,-178 1108,-178 685.74,-178 685.74,-178"/>
<polygon fill="black" stroke="black" points="685.74,-174.5 675.74,-178 685.74,-181.5 685.74,-174.5"/>
</g>
<!-- GoogleAuth -->
<g id="node2" class="node">
<title>GoogleAuth</title>
<ellipse fill="#fdb462" stroke="black" cx="947" cy="-104" rx="58.55" ry="18"/>
<text text-anchor="middle" x="947" y="-99.8" font-family="Times,serif" font-size="14.00">GoogleAuth</text>
</g>
<!-- GoogleAuth&#45;&gt;FirebaseConnectorModule -->
<g id="edge2" class="edge">
<title>GoogleAuth&#45;&gt;FirebaseConnectorModule</title>
<path fill="none" stroke="black" d="M947,-122.11C947,-141.34 947,-169 947,-169 947,-169 686,-169 686,-169"/>
<polygon fill="black" stroke="black" points="686,-165.5 676,-169 686,-172.5 686,-165.5"/>
</g>
<!-- GithubAuth -->
<g id="node3" class="node">
<title>GithubAuth</title>
<ellipse fill="#fdb462" stroke="black" cx="813" cy="-104" rx="57.35" ry="18"/>
<text text-anchor="middle" x="813" y="-99.8" font-family="Times,serif" font-size="14.00">GithubAuth</text>
</g>
<!-- GithubAuth&#45;&gt;FirebaseConnectorModule -->
<g id="edge3" class="edge">
<title>GithubAuth&#45;&gt;FirebaseConnectorModule</title>
<path fill="none" stroke="black" d="M813,-122.03C813,-138.4 813,-160 813,-160 813,-160 685.86,-160 685.86,-160"/>
<polygon fill="black" stroke="black" points="685.86,-156.5 675.86,-160 685.86,-163.5 685.86,-156.5"/>
</g>
<!-- FacebookAuth -->
<g id="node4" class="node">
<title>FacebookAuth</title>
<ellipse fill="#fdb462" stroke="black" cx="670" cy="-104" rx="67.78" ry="18"/>
<text text-anchor="middle" x="670" y="-99.8" font-family="Times,serif" font-size="14.00">FacebookAuth</text>
</g>
<!-- FacebookAuth&#45;&gt;FirebaseConnectorModule -->
<g id="edge4" class="edge">
<title>FacebookAuth&#45;&gt;FirebaseConnectorModule</title>
<path fill="none" stroke="black" d="M638.88,-120.07C638.88,-120.07 638.88,-140.82 638.88,-140.82"/>
<polygon fill="black" stroke="black" points="635.38,-140.82 638.88,-150.82 642.38,-140.82 635.38,-140.82"/>
</g>
<!-- PasswordAuth -->
<g id="node5" class="node">
<title>PasswordAuth</title>
<ellipse fill="#fdb462" stroke="black" cx="517" cy="-104" rx="67.22" ry="18"/>
<text text-anchor="middle" x="517" y="-99.8" font-family="Times,serif" font-size="14.00">PasswordAuth</text>
</g>
<!-- PasswordAuth&#45;&gt;FirebaseConnectorModule -->
<g id="edge5" class="edge">
<title>PasswordAuth&#45;&gt;FirebaseConnectorModule</title>
<path fill="none" stroke="black" d="M547.36,-120.4C547.36,-120.4 547.36,-140.54 547.36,-140.54"/>
<polygon fill="black" stroke="black" points="543.86,-140.54 547.36,-150.54 550.86,-140.54 543.86,-140.54"/>
</g>
<!-- TwitterAuth -->
<g id="node6" class="node">
<title>TwitterAuth</title>
<ellipse fill="#fdb462" stroke="black" cx="373" cy="-104" rx="58.54" ry="18"/>
<text text-anchor="middle" x="373" y="-99.8" font-family="Times,serif" font-size="14.00">TwitterAuth</text>
</g>
<!-- TwitterAuth&#45;&gt;FirebaseConnectorModule -->
<g id="edge6" class="edge">
<title>TwitterAuth&#45;&gt;FirebaseConnectorModule</title>
<path fill="none" stroke="black" d="M373,-122.03C373,-138.4 373,-160 373,-160 373,-160 500.14,-160 500.14,-160"/>
<polygon fill="black" stroke="black" points="500.14,-163.5 510.14,-160 500.14,-156.5 500.14,-163.5"/>
</g>
<!-- AnonymouslyAuth -->
<g id="node7" class="node">
<title>AnonymouslyAuth</title>
<ellipse fill="#fdb462" stroke="black" cx="211" cy="-104" rx="85.14" ry="18"/>
<text text-anchor="middle" x="211" y="-99.8" font-family="Times,serif" font-size="14.00">AnonymouslyAuth</text>
</g>
<!-- AnonymouslyAuth&#45;&gt;FirebaseConnectorModule -->
<g id="edge7" class="edge">
<title>AnonymouslyAuth&#45;&gt;FirebaseConnectorModule</title>
<path fill="none" stroke="black" d="M211,-122.11C211,-141.34 211,-169 211,-169 211,-169 500.11,-169 500.11,-169"/>
<polygon fill="black" stroke="black" points="500.11,-172.5 510.11,-169 500.11,-165.5 500.11,-172.5"/>
</g>
<!-- VkAuth -->
<g id="node8" class="node">
<title>VkAuth</title>
<ellipse fill="#fdb462" stroke="black" cx="66" cy="-104" rx="42.3" ry="18"/>
<text text-anchor="middle" x="66" y="-99.8" font-family="Times,serif" font-size="14.00">VkAuth</text>
</g>
<!-- VkAuth&#45;&gt;FirebaseConnectorModule -->
<g id="edge8" class="edge">
<title>VkAuth&#45;&gt;FirebaseConnectorModule</title>
<path fill="none" stroke="black" d="M66,-122.29C66,-144.21 66,-178 66,-178 66,-178 500.08,-178 500.08,-178"/>
<polygon fill="black" stroke="black" points="500.08,-181.5 510.08,-178 500.08,-174.5 500.08,-181.5"/>
</g>
</g>
</svg>
