<?xml version="1.0" encoding="UTF-8" standalone="no"?>
<!DOCTYPE svg PUBLIC "-//W3C//DTD SVG 1.1//EN"
 "http://www.w3.org/Graphics/SVG/1.1/DTD/svg11.dtd">
<!-- Generated by graphviz version 2.46.0 (20210119.1425)
 -->
<!-- Title: dependencies Pages: 1 -->
<svg width="504pt" height="284pt"
 viewBox="0.00 0.00 504.00 284.00" xmlns="http://www.w3.org/2000/svg" xmlns:xlink="http://www.w3.org/1999/xlink">
<g id="graph0" class="graph" transform="scale(1 1) rotate(0) translate(4 280)">
<title>dependencies</title>
<polygon fill="white" stroke="transparent" points="-4,4 -4,-280 500,-280 500,4 -4,4"/>
<text text-anchor="start" x="227.01" y="-42.4" font-family="sans-serif" font-weight="bold" font-size="14.00">Legend</text>
<polygon fill="#ffffb3" stroke="transparent" points="14,-10 14,-30 34,-30 34,-10 14,-10"/>
<text text-anchor="start" x="37.63" y="-15.4" font-family="sans-serif" font-size="14.00"> &#160;Declarations</text>
<polygon fill="#8dd3c7" stroke="transparent" points="127,-10 127,-30 147,-30 147,-10 127,-10"/>
<text text-anchor="start" x="150.73" y="-15.4" font-family="sans-serif" font-size="14.00"> &#160;Module</text>
<polygon fill="#80b1d3" stroke="transparent" points="213,-10 213,-30 233,-30 233,-10 213,-10"/>
<text text-anchor="start" x="236.78" y="-15.4" font-family="sans-serif" font-size="14.00"> &#160;Bootstrap</text>
<polygon fill="#fdb462" stroke="transparent" points="310,-10 310,-30 330,-30 330,-10 310,-10"/>
<text text-anchor="start" x="333.67" y="-15.4" font-family="sans-serif" font-size="14.00"> &#160;Providers</text>
<polygon fill="#fb8072" stroke="transparent" points="406,-10 406,-30 426,-30 426,-10 406,-10"/>
<text text-anchor="start" x="429.73" y="-15.4" font-family="sans-serif" font-size="14.00"> &#160;Exports</text>
<g id="clust1" class="cluster">
<title>cluster_CategoryFilterModule</title>
<polygon fill="none" stroke="black" stroke-dasharray="1,5" points="83,-70 83,-268 413,-268 413,-70 83,-70"/>
</g>
<g id="clust4" class="cluster">
<title>cluster_CategoryFilterModule_imports</title>
<polygon fill="none" stroke="black" points="277,-78 277,-130 405,-130 405,-78 277,-78"/>
</g>
<g id="clust5" class="cluster">
<title>cluster_CategoryFilterModule_exports</title>
<polygon fill="none" stroke="black" points="157,-208 157,-260 339,-260 339,-208 157,-208"/>
</g>
<g id="clust2" class="cluster">
<title>cluster_CategoryFilterModule_declarations</title>
<polygon fill="none" stroke="black" points="91,-78 91,-130 269,-130 269,-78 91,-78"/>
</g>
<!-- CategoryFilterComponent -->
<g id="node1" class="node">
<title>CategoryFilterComponent</title>
<polygon fill="#ffffb3" stroke="black" points="261.48,-122 98.52,-122 98.52,-86 261.48,-86 261.48,-122"/>
<text text-anchor="middle" x="180" y="-99.8" font-family="Times,serif" font-size="14.00">CategoryFilterComponent</text>
</g>
<!-- CategoryFilterModule -->
<g id="node2" class="node">
<title>CategoryFilterModule</title>
<polygon fill="#8dd3c7" stroke="black" points="318.7,-187 315.7,-191 294.7,-191 291.7,-187 177.3,-187 177.3,-151 318.7,-151 318.7,-187"/>
<text text-anchor="middle" x="248" y="-164.8" font-family="Times,serif" font-size="14.00">CategoryFilterModule</text>
</g>
<!-- CategoryFilterComponent&#45;&gt;CategoryFilterModule -->
<g id="edge1" class="edge">
<title>CategoryFilterComponent&#45;&gt;CategoryFilterModule</title>
<path fill="none" stroke="black" d="M219.45,-122.11C219.45,-122.11 219.45,-140.99 219.45,-140.99"/>
<polygon fill="black" stroke="black" points="215.95,-140.99 219.45,-150.99 222.95,-140.99 215.95,-140.99"/>
</g>
<!-- CategoryFilterComponent  -->
<g id="node4" class="node">
<title>CategoryFilterComponent </title>
<polygon fill="#fb8072" stroke="black" points="331.48,-252 164.52,-252 164.52,-216 331.48,-216 331.48,-252"/>
<text text-anchor="middle" x="248" y="-229.8" font-family="Times,serif" font-size="14.00">CategoryFilterComponent </text>
</g>
<!-- CategoryFilterModule&#45;&gt;CategoryFilterComponent  -->
<g id="edge3" class="edge">
<title>CategoryFilterModule&#45;&gt;CategoryFilterComponent </title>
<path fill="none" stroke="black" stroke-dasharray="5,2" d="M248,-187.11C248,-187.11 248,-205.99 248,-205.99"/>
<polygon fill="black" stroke="black" points="244.5,-205.99 248,-215.99 251.5,-205.99 244.5,-205.99"/>
</g>
<!-- CommonModule -->
<g id="node3" class="node">
<title>CommonModule</title>
<polygon fill="#8dd3c7" stroke="black" points="396.67,-122 393.67,-126 372.67,-126 369.67,-122 285.33,-122 285.33,-86 396.67,-86 396.67,-122"/>
<text text-anchor="middle" x="341" y="-99.8" font-family="Times,serif" font-size="14.00">CommonModule</text>
</g>
<!-- CommonModule&#45;&gt;CategoryFilterModule -->
<g id="edge2" class="edge">
<title>CommonModule&#45;&gt;CategoryFilterModule</title>
<path fill="none" stroke="black" d="M301.88,-122.11C301.88,-122.11 301.88,-140.99 301.88,-140.99"/>
<polygon fill="black" stroke="black" points="298.38,-140.99 301.88,-150.99 305.38,-140.99 298.38,-140.99"/>
</g>
</g>
</svg>
