<?xml version="1.0" encoding="UTF-8" standalone="no"?>
<!DOCTYPE svg PUBLIC "-//W3C//DTD SVG 1.1//EN"
 "http://www.w3.org/Graphics/SVG/1.1/DTD/svg11.dtd">
<!-- Generated by graphviz version 2.46.0 (20210119.1425)
 -->
<!-- Title: dependencies Pages: 1 -->
<svg width="752pt" height="284pt"
 viewBox="0.00 0.00 752.00 284.00" xmlns="http://www.w3.org/2000/svg" xmlns:xlink="http://www.w3.org/1999/xlink">
<g id="graph0" class="graph" transform="scale(1 1) rotate(0) translate(4 280)">
<title>dependencies</title>
<polygon fill="white" stroke="transparent" points="-4,4 -4,-280 748,-280 748,4 -4,4"/>
<text text-anchor="start" x="351.01" y="-42.4" font-family="sans-serif" font-weight="bold" font-size="14.00">Legend</text>
<polygon fill="#ffffb3" stroke="transparent" points="138,-10 138,-30 158,-30 158,-10 138,-10"/>
<text text-anchor="start" x="161.63" y="-15.4" font-family="sans-serif" font-size="14.00"> &#160;Declarations</text>
<polygon fill="#8dd3c7" stroke="transparent" points="251,-10 251,-30 271,-30 271,-10 251,-10"/>
<text text-anchor="start" x="274.73" y="-15.4" font-family="sans-serif" font-size="14.00"> &#160;Module</text>
<polygon fill="#80b1d3" stroke="transparent" points="337,-10 337,-30 357,-30 357,-10 337,-10"/>
<text text-anchor="start" x="360.78" y="-15.4" font-family="sans-serif" font-size="14.00"> &#160;Bootstrap</text>
<polygon fill="#fdb462" stroke="transparent" points="434,-10 434,-30 454,-30 454,-10 434,-10"/>
<text text-anchor="start" x="457.67" y="-15.4" font-family="sans-serif" font-size="14.00"> &#160;Providers</text>
<polygon fill="#fb8072" stroke="transparent" points="530,-10 530,-30 550,-30 550,-10 530,-10"/>
<text text-anchor="start" x="553.73" y="-15.4" font-family="sans-serif" font-size="14.00"> &#160;Exports</text>
<g id="clust1" class="cluster">
<title>cluster_ProductModule</title>
<polygon fill="none" stroke="black" stroke-dasharray="1,5" points="8,-70 8,-268 736,-268 736,-70 8,-70"/>
</g>
<g id="clust2" class="cluster">
<title>cluster_ProductModule_declarations</title>
<polygon fill="none" stroke="black" points="588,-78 588,-130 728,-130 728,-78 588,-78"/>
</g>
<g id="clust5" class="cluster">
<title>cluster_ProductModule_exports</title>
<polygon fill="none" stroke="black" points="270,-208 270,-260 414,-260 414,-208 270,-208"/>
</g>
<g id="clust4" class="cluster">
<title>cluster_ProductModule_imports</title>
<polygon fill="none" stroke="black" points="16,-78 16,-130 580,-130 580,-78 16,-78"/>
</g>
<!-- ProductComponent -->
<g id="node1" class="node">
<title>ProductComponent</title>
<polygon fill="#ffffb3" stroke="black" points="720.38,-122 595.62,-122 595.62,-86 720.38,-86 720.38,-122"/>
<text text-anchor="middle" x="658" y="-99.8" font-family="Times,serif" font-size="14.00">ProductComponent</text>
</g>
<!-- ProductModule -->
<g id="node2" class="node">
<title>ProductModule</title>
<polygon fill="#8dd3c7" stroke="black" points="393.6,-187 390.6,-191 369.6,-191 366.6,-187 290.4,-187 290.4,-151 393.6,-151 393.6,-187"/>
<text text-anchor="middle" x="342" y="-164.8" font-family="Times,serif" font-size="14.00">ProductModule</text>
</g>
<!-- ProductComponent&#45;&gt;ProductModule -->
<g id="edge1" class="edge">
<title>ProductComponent&#45;&gt;ProductModule</title>
<path fill="none" stroke="black" d="M658,-122.28C658,-143.32 658,-175 658,-175 658,-175 403.83,-175 403.83,-175"/>
<polygon fill="black" stroke="black" points="403.83,-171.5 393.83,-175 403.83,-178.5 403.83,-171.5"/>
</g>
<!-- ProductComponent  -->
<g id="node7" class="node">
<title>ProductComponent </title>
<polygon fill="#fb8072" stroke="black" points="406.38,-252 277.62,-252 277.62,-216 406.38,-216 406.38,-252"/>
<text text-anchor="middle" x="342" y="-229.8" font-family="Times,serif" font-size="14.00">ProductComponent </text>
</g>
<!-- ProductModule&#45;&gt;ProductComponent  -->
<g id="edge6" class="edge">
<title>ProductModule&#45;&gt;ProductComponent </title>
<path fill="none" stroke="black" stroke-dasharray="5,2" d="M342,-187.11C342,-187.11 342,-205.99 342,-205.99"/>
<polygon fill="black" stroke="black" points="338.5,-205.99 342,-215.99 345.5,-205.99 338.5,-205.99"/>
</g>
<!-- BasketServiceModule -->
<g id="node3" class="node">
<title>BasketServiceModule</title>
<polygon fill="#8dd3c7" stroke="black" points="571.63,-122 568.63,-126 547.63,-126 544.63,-122 432.37,-122 432.37,-86 571.63,-86 571.63,-122"/>
<text text-anchor="middle" x="502" y="-99.8" font-family="Times,serif" font-size="14.00">BasketServiceModule</text>
</g>
<!-- BasketServiceModule&#45;&gt;ProductModule -->
<g id="edge2" class="edge">
<title>BasketServiceModule&#45;&gt;ProductModule</title>
<path fill="none" stroke="black" d="M502,-122.02C502,-139.37 502,-163 502,-163 502,-163 403.95,-163 403.95,-163"/>
<polygon fill="black" stroke="black" points="403.95,-159.5 393.95,-163 403.95,-166.5 403.95,-159.5"/>
</g>
<!-- ProductServiceModule -->
<g id="node4" class="node">
<title>ProductServiceModule</title>
<polygon fill="#8dd3c7" stroke="black" points="414.58,-122 411.58,-126 390.58,-126 387.58,-122 269.42,-122 269.42,-86 414.58,-86 414.58,-122"/>
<text text-anchor="middle" x="342" y="-99.8" font-family="Times,serif" font-size="14.00">ProductServiceModule</text>
</g>
<!-- ProductServiceModule&#45;&gt;ProductModule -->
<g id="edge3" class="edge">
<title>ProductServiceModule&#45;&gt;ProductModule</title>
<path fill="none" stroke="black" d="M342,-122.11C342,-122.11 342,-140.99 342,-140.99"/>
<polygon fill="black" stroke="black" points="338.5,-140.99 342,-150.99 345.5,-140.99 338.5,-140.99"/>
</g>
<!-- CommonModule -->
<g id="node5" class="node">
<title>CommonModule</title>
<polygon fill="#8dd3c7" stroke="black" points="251.67,-122 248.67,-126 227.67,-126 224.67,-122 140.33,-122 140.33,-86 251.67,-86 251.67,-122"/>
<text text-anchor="middle" x="196" y="-99.8" font-family="Times,serif" font-size="14.00">CommonModule</text>
</g>
<!-- CommonModule&#45;&gt;ProductModule -->
<g id="edge4" class="edge">
<title>CommonModule&#45;&gt;ProductModule</title>
<path fill="none" stroke="black" d="M196,-122.02C196,-139.37 196,-163 196,-163 196,-163 280.11,-163 280.11,-163"/>
<polygon fill="black" stroke="black" points="280.11,-166.5 290.11,-163 280.11,-159.5 280.11,-166.5"/>
</g>
<!-- RouterModule -->
<g id="node6" class="node">
<title>RouterModule</title>
<polygon fill="#8dd3c7" stroke="black" points="121.65,-122 118.65,-126 97.65,-126 94.65,-122 24.35,-122 24.35,-86 121.65,-86 121.65,-122"/>
<text text-anchor="middle" x="73" y="-99.8" font-family="Times,serif" font-size="14.00">RouterModule</text>
</g>
<!-- RouterModule&#45;&gt;ProductModule -->
<g id="edge5" class="edge">
<title>RouterModule&#45;&gt;ProductModule</title>
<path fill="none" stroke="black" d="M73,-122.28C73,-143.32 73,-175 73,-175 73,-175 280.13,-175 280.13,-175"/>
<polygon fill="black" stroke="black" points="280.13,-178.5 290.13,-175 280.13,-171.5 280.13,-178.5"/>
</g>
</g>
</svg>
