<?xml version="1.0" encoding="UTF-8" standalone="no"?>
<!DOCTYPE svg PUBLIC "-//W3C//DTD SVG 1.1//EN"
 "http://www.w3.org/Graphics/SVG/1.1/DTD/svg11.dtd">
<!-- Generated by graphviz version 2.46.0 (20210119.1425)
 -->
<!-- Title: dependencies Pages: 1 -->
<svg width="586pt" height="284pt"
 viewBox="0.00 0.00 586.00 284.00" xmlns="http://www.w3.org/2000/svg" xmlns:xlink="http://www.w3.org/1999/xlink">
<g id="graph0" class="graph" transform="scale(1 1) rotate(0) translate(4 280)">
<title>dependencies</title>
<polygon fill="white" stroke="transparent" points="-4,4 -4,-280 582,-280 582,4 -4,4"/>
<text text-anchor="start" x="268.01" y="-42.4" font-family="sans-serif" font-weight="bold" font-size="14.00">Legend</text>
<polygon fill="#ffffb3" stroke="transparent" points="55,-10 55,-30 75,-30 75,-10 55,-10"/>
<text text-anchor="start" x="78.63" y="-15.4" font-family="sans-serif" font-size="14.00"> &#160;Declarations</text>
<polygon fill="#8dd3c7" stroke="transparent" points="168,-10 168,-30 188,-30 188,-10 168,-10"/>
<text text-anchor="start" x="191.73" y="-15.4" font-family="sans-serif" font-size="14.00"> &#160;Module</text>
<polygon fill="#80b1d3" stroke="transparent" points="254,-10 254,-30 274,-30 274,-10 254,-10"/>
<text text-anchor="start" x="277.78" y="-15.4" font-family="sans-serif" font-size="14.00"> &#160;Bootstrap</text>
<polygon fill="#fdb462" stroke="transparent" points="351,-10 351,-30 371,-30 371,-10 351,-10"/>
<text text-anchor="start" x="374.67" y="-15.4" font-family="sans-serif" font-size="14.00"> &#160;Providers</text>
<polygon fill="#fb8072" stroke="transparent" points="447,-10 447,-30 467,-30 467,-10 447,-10"/>
<text text-anchor="start" x="470.73" y="-15.4" font-family="sans-serif" font-size="14.00"> &#160;Exports</text>
<g id="clust1" class="cluster">
<title>cluster_BasketModule</title>
<polygon fill="none" stroke="black" stroke-dasharray="1,5" points="8,-70 8,-268 570,-268 570,-70 8,-70"/>
</g>
<g id="clust2" class="cluster">
<title>cluster_BasketModule_declarations</title>
<polygon fill="none" stroke="black" points="426,-78 426,-130 562,-130 562,-78 426,-78"/>
</g>
<g id="clust5" class="cluster">
<title>cluster_BasketModule_exports</title>
<polygon fill="none" stroke="black" points="199,-208 199,-260 337,-260 337,-208 199,-208"/>
</g>
<g id="clust4" class="cluster">
<title>cluster_BasketModule_imports</title>
<polygon fill="none" stroke="black" points="16,-78 16,-130 418,-130 418,-78 16,-78"/>
</g>
<!-- BasketComponent -->
<g id="node1" class="node">
<title>BasketComponent</title>
<polygon fill="#ffffb3" stroke="black" points="553.93,-122 434.07,-122 434.07,-86 553.93,-86 553.93,-122"/>
<text text-anchor="middle" x="494" y="-99.8" font-family="Times,serif" font-size="14.00">BasketComponent</text>
</g>
<!-- BasketModule -->
<g id="node2" class="node">
<title>BasketModule</title>
<polygon fill="#8dd3c7" stroke="black" points="316.65,-187 313.65,-191 292.65,-191 289.65,-187 219.35,-187 219.35,-151 316.65,-151 316.65,-187"/>
<text text-anchor="middle" x="268" y="-164.8" font-family="Times,serif" font-size="14.00">BasketModule</text>
</g>
<!-- BasketComponent&#45;&gt;BasketModule -->
<g id="edge1" class="edge">
<title>BasketComponent&#45;&gt;BasketModule</title>
<path fill="none" stroke="black" d="M494,-122.11C494,-141.34 494,-169 494,-169 494,-169 326.76,-169 326.76,-169"/>
<polygon fill="black" stroke="black" points="326.76,-165.5 316.76,-169 326.76,-172.5 326.76,-165.5"/>
</g>
<!-- BasketComponent  -->
<g id="node6" class="node">
<title>BasketComponent </title>
<polygon fill="#fb8072" stroke="black" points="329.43,-252 206.57,-252 206.57,-216 329.43,-216 329.43,-252"/>
<text text-anchor="middle" x="268" y="-229.8" font-family="Times,serif" font-size="14.00">BasketComponent </text>
</g>
<!-- BasketModule&#45;&gt;BasketComponent  -->
<g id="edge5" class="edge">
<title>BasketModule&#45;&gt;BasketComponent </title>
<path fill="none" stroke="black" stroke-dasharray="5,2" d="M268,-187.11C268,-187.11 268,-205.99 268,-205.99"/>
<polygon fill="black" stroke="black" points="264.5,-205.99 268,-215.99 271.5,-205.99 264.5,-205.99"/>
</g>
<!-- BasketServiceModule -->
<g id="node3" class="node">
<title>BasketServiceModule</title>
<polygon fill="#8dd3c7" stroke="black" points="409.63,-122 406.63,-126 385.63,-126 382.63,-122 270.37,-122 270.37,-86 409.63,-86 409.63,-122"/>
<text text-anchor="middle" x="340" y="-99.8" font-family="Times,serif" font-size="14.00">BasketServiceModule</text>
</g>
<!-- BasketServiceModule&#45;&gt;BasketModule -->
<g id="edge2" class="edge">
<title>BasketServiceModule&#45;&gt;BasketModule</title>
<path fill="none" stroke="black" d="M293.51,-122.11C293.51,-122.11 293.51,-140.99 293.51,-140.99"/>
<polygon fill="black" stroke="black" points="290.01,-140.99 293.51,-150.99 297.01,-140.99 290.01,-140.99"/>
</g>
<!-- CommonModule -->
<g id="node4" class="node">
<title>CommonModule</title>
<polygon fill="#8dd3c7" stroke="black" points="251.67,-122 248.67,-126 227.67,-126 224.67,-122 140.33,-122 140.33,-86 251.67,-86 251.67,-122"/>
<text text-anchor="middle" x="196" y="-99.8" font-family="Times,serif" font-size="14.00">CommonModule</text>
</g>
<!-- CommonModule&#45;&gt;BasketModule -->
<g id="edge3" class="edge">
<title>CommonModule&#45;&gt;BasketModule</title>
<path fill="none" stroke="black" d="M235.5,-122.11C235.5,-122.11 235.5,-140.99 235.5,-140.99"/>
<polygon fill="black" stroke="black" points="232,-140.99 235.5,-150.99 239,-140.99 232,-140.99"/>
</g>
<!-- RouterModule -->
<g id="node5" class="node">
<title>RouterModule</title>
<polygon fill="#8dd3c7" stroke="black" points="121.65,-122 118.65,-126 97.65,-126 94.65,-122 24.35,-122 24.35,-86 121.65,-86 121.65,-122"/>
<text text-anchor="middle" x="73" y="-99.8" font-family="Times,serif" font-size="14.00">RouterModule</text>
</g>
<!-- RouterModule&#45;&gt;BasketModule -->
<g id="edge4" class="edge">
<title>RouterModule&#45;&gt;BasketModule</title>
<path fill="none" stroke="black" d="M73,-122.11C73,-141.34 73,-169 73,-169 73,-169 209.3,-169 209.3,-169"/>
<polygon fill="black" stroke="black" points="209.3,-172.5 219.3,-169 209.3,-165.5 209.3,-172.5"/>
</g>
</g>
</svg>
