<?xml version="1.0" encoding="UTF-8" standalone="no"?>
<!DOCTYPE svg PUBLIC "-//W3C//DTD SVG 1.1//EN"
 "http://www.w3.org/Graphics/SVG/1.1/DTD/svg11.dtd">
<!-- Generated by graphviz version 2.46.0 (20210119.1425)
 -->
<!-- Title: dependencies Pages: 1 -->
<svg width="932pt" height="284pt"
 viewBox="0.00 0.00 932.00 284.00" xmlns="http://www.w3.org/2000/svg" xmlns:xlink="http://www.w3.org/1999/xlink">
<g id="graph0" class="graph" transform="scale(1 1) rotate(0) translate(4 280)">
<title>dependencies</title>
<polygon fill="white" stroke="transparent" points="-4,4 -4,-280 928,-280 928,4 -4,4"/>
<text text-anchor="start" x="441.01" y="-42.4" font-family="sans-serif" font-weight="bold" font-size="14.00">Legend</text>
<polygon fill="#ffffb3" stroke="transparent" points="228,-10 228,-30 248,-30 248,-10 228,-10"/>
<text text-anchor="start" x="251.63" y="-15.4" font-family="sans-serif" font-size="14.00"> &#160;Declarations</text>
<polygon fill="#8dd3c7" stroke="transparent" points="341,-10 341,-30 361,-30 361,-10 341,-10"/>
<text text-anchor="start" x="364.73" y="-15.4" font-family="sans-serif" font-size="14.00"> &#160;Module</text>
<polygon fill="#80b1d3" stroke="transparent" points="427,-10 427,-30 447,-30 447,-10 427,-10"/>
<text text-anchor="start" x="450.78" y="-15.4" font-family="sans-serif" font-size="14.00"> &#160;Bootstrap</text>
<polygon fill="#fdb462" stroke="transparent" points="524,-10 524,-30 544,-30 544,-10 524,-10"/>
<text text-anchor="start" x="547.67" y="-15.4" font-family="sans-serif" font-size="14.00"> &#160;Providers</text>
<polygon fill="#fb8072" stroke="transparent" points="620,-10 620,-30 640,-30 640,-10 620,-10"/>
<text text-anchor="start" x="643.73" y="-15.4" font-family="sans-serif" font-size="14.00"> &#160;Exports</text>
<g id="clust1" class="cluster">
<title>cluster_ProductsListModule</title>
<polygon fill="none" stroke="black" stroke-dasharray="1,5" points="8,-70 8,-268 916,-268 916,-70 8,-70"/>
</g>
<g id="clust4" class="cluster">
<title>cluster_ProductsListModule_imports</title>
<polygon fill="none" stroke="black" points="192,-78 192,-130 908,-130 908,-78 192,-78"/>
</g>
<g id="clust5" class="cluster">
<title>cluster_ProductsListModule_exports</title>
<polygon fill="none" stroke="black" points="370,-208 370,-260 542,-260 542,-208 370,-208"/>
</g>
<g id="clust2" class="cluster">
<title>cluster_ProductsListModule_declarations</title>
<polygon fill="none" stroke="black" points="16,-78 16,-130 184,-130 184,-78 16,-78"/>
</g>
<!-- ProductsListComponent -->
<g id="node1" class="node">
<title>ProductsListComponent</title>
<polygon fill="#ffffb3" stroke="black" points="176.1,-122 23.9,-122 23.9,-86 176.1,-86 176.1,-122"/>
<text text-anchor="middle" x="100" y="-99.8" font-family="Times,serif" font-size="14.00">ProductsListComponent</text>
</g>
<!-- ProductsListModule -->
<g id="node2" class="node">
<title>ProductsListModule</title>
<polygon fill="#8dd3c7" stroke="black" points="521.32,-187 518.32,-191 497.32,-191 494.32,-187 390.68,-187 390.68,-151 521.32,-151 521.32,-187"/>
<text text-anchor="middle" x="456" y="-164.8" font-family="Times,serif" font-size="14.00">ProductsListModule</text>
</g>
<!-- ProductsListComponent&#45;&gt;ProductsListModule -->
<g id="edge1" class="edge">
<title>ProductsListComponent&#45;&gt;ProductsListModule</title>
<path fill="none" stroke="black" d="M100,-122.28C100,-143.32 100,-175 100,-175 100,-175 380.7,-175 380.7,-175"/>
<polygon fill="black" stroke="black" points="380.7,-178.5 390.7,-175 380.7,-171.5 380.7,-178.5"/>
</g>
<!-- ProductsListComponent  -->
<g id="node8" class="node">
<title>ProductsListComponent </title>
<polygon fill="#fb8072" stroke="black" points="533.6,-252 378.4,-252 378.4,-216 533.6,-216 533.6,-252"/>
<text text-anchor="middle" x="456" y="-229.8" font-family="Times,serif" font-size="14.00">ProductsListComponent </text>
</g>
<!-- ProductsListModule&#45;&gt;ProductsListComponent  -->
<g id="edge7" class="edge">
<title>ProductsListModule&#45;&gt;ProductsListComponent </title>
<path fill="none" stroke="black" stroke-dasharray="5,2" d="M456,-187.11C456,-187.11 456,-205.99 456,-205.99"/>
<polygon fill="black" stroke="black" points="452.5,-205.99 456,-215.99 459.5,-205.99 452.5,-205.99"/>
</g>
<!-- ProductServiceModule -->
<g id="node3" class="node">
<title>ProductServiceModule</title>
<polygon fill="#8dd3c7" stroke="black" points="899.58,-122 896.58,-126 875.58,-126 872.58,-122 754.42,-122 754.42,-86 899.58,-86 899.58,-122"/>
<text text-anchor="middle" x="827" y="-99.8" font-family="Times,serif" font-size="14.00">ProductServiceModule</text>
</g>
<!-- ProductServiceModule&#45;&gt;ProductsListModule -->
<g id="edge2" class="edge">
<title>ProductServiceModule&#45;&gt;ProductsListModule</title>
<path fill="none" stroke="black" d="M827,-122.28C827,-143.32 827,-175 827,-175 827,-175 531.47,-175 531.47,-175"/>
<polygon fill="black" stroke="black" points="531.47,-171.5 521.47,-175 531.47,-178.5 531.47,-171.5"/>
</g>
<!-- BrowserModule -->
<g id="node4" class="node">
<title>BrowserModule</title>
<polygon fill="#8dd3c7" stroke="black" points="736.47,-122 733.47,-126 712.47,-126 709.47,-122 629.53,-122 629.53,-86 736.47,-86 736.47,-122"/>
<text text-anchor="middle" x="683" y="-99.8" font-family="Times,serif" font-size="14.00">BrowserModule</text>
</g>
<!-- BrowserModule&#45;&gt;ProductsListModule -->
<g id="edge3" class="edge">
<title>BrowserModule&#45;&gt;ProductsListModule</title>
<path fill="none" stroke="black" d="M683,-122.02C683,-139.37 683,-163 683,-163 683,-163 531.35,-163 531.35,-163"/>
<polygon fill="black" stroke="black" points="531.35,-159.5 521.35,-163 531.35,-166.5 531.35,-159.5"/>
</g>
<!-- AttributesSearchModule -->
<g id="node5" class="node">
<title>AttributesSearchModule</title>
<polygon fill="#8dd3c7" stroke="black" points="611.63,-122 608.63,-126 587.63,-126 584.63,-122 458.37,-122 458.37,-86 611.63,-86 611.63,-122"/>
<text text-anchor="middle" x="535" y="-99.8" font-family="Times,serif" font-size="14.00">AttributesSearchModule</text>
</g>
<!-- AttributesSearchModule&#45;&gt;ProductsListModule -->
<g id="edge4" class="edge">
<title>AttributesSearchModule&#45;&gt;ProductsListModule</title>
<path fill="none" stroke="black" d="M489.67,-122.11C489.67,-122.11 489.67,-140.99 489.67,-140.99"/>
<polygon fill="black" stroke="black" points="486.17,-140.99 489.67,-150.99 493.17,-140.99 486.17,-140.99"/>
</g>
<!-- TagsSearchModule -->
<g id="node6" class="node">
<title>TagsSearchModule</title>
<polygon fill="#8dd3c7" stroke="black" points="440.35,-122 437.35,-126 416.35,-126 413.35,-122 315.65,-122 315.65,-86 440.35,-86 440.35,-122"/>
<text text-anchor="middle" x="378" y="-99.8" font-family="Times,serif" font-size="14.00">TagsSearchModule</text>
</g>
<!-- TagsSearchModule&#45;&gt;ProductsListModule -->
<g id="edge5" class="edge">
<title>TagsSearchModule&#45;&gt;ProductsListModule</title>
<path fill="none" stroke="black" d="M415.63,-122.11C415.63,-122.11 415.63,-140.99 415.63,-140.99"/>
<polygon fill="black" stroke="black" points="412.13,-140.99 415.63,-150.99 419.13,-140.99 412.13,-140.99"/>
</g>
<!-- RouterModule -->
<g id="node7" class="node">
<title>RouterModule</title>
<polygon fill="#8dd3c7" stroke="black" points="297.65,-122 294.65,-126 273.65,-126 270.65,-122 200.35,-122 200.35,-86 297.65,-86 297.65,-122"/>
<text text-anchor="middle" x="249" y="-99.8" font-family="Times,serif" font-size="14.00">RouterModule</text>
</g>
<!-- RouterModule&#45;&gt;ProductsListModule -->
<g id="edge6" class="edge">
<title>RouterModule&#45;&gt;ProductsListModule</title>
<path fill="none" stroke="black" d="M249,-122.02C249,-139.37 249,-163 249,-163 249,-163 380.79,-163 380.79,-163"/>
<polygon fill="black" stroke="black" points="380.79,-166.5 390.79,-163 380.79,-159.5 380.79,-166.5"/>
</g>
</g>
</svg>
